<svg xmlns="http://www.w3.org/2000/svg" xmlns:xlink="http://www.w3.org/1999/xlink" xmlns:lucid="lucid" width="1623" height="1212"><g transform="translate(-539.5 -19.5)" lucid:page-tab-id="0_0"><path d="M500 0h2000v1500H500z" fill="#fff"/><path d="M680 132.5a6 6 0 0 1 6-6h288a6 6 0 0 1 6 6v234a6 6 0 0 1-6 6H686a6 6 0 0 1-6-6z" stroke="#3a414a" fill="#fcfcca"/><path d="M680 164.1h300m-300 90.83h300" stroke="#3a414a" fill="none"/><use xlink:href="#a" transform="matrix(1,0,0,1,688,134.5) translate(48.400000000000006 14.6)"/><use xlink:href="#b" transform="matrix(1,0,0,1,688,134.5) translate(183.15 14.6)"/><use xlink:href="#c" transform="matrix(1,0,0,1,692,172.1) translate(0 28.611111111111114)"/><use xlink:href="#d" transform="matrix(1,0,0,1,692,172.1) translate(0 55.27777777777778)"/><use xlink:href="#e" transform="matrix(1,0,0,1,692,172.1) translate(13.518518518518519 55.27777777777778)"/><use xlink:href="#f" transform="matrix(1,0,0,1,692,172.1) translate(36.91358024691358 55.27777777777778)"/><use xlink:href="#g" transform="matrix(1,0,0,1,692,262.93333333333334) translate(0 28.77777777777778)"/><use xlink:href="#d" transform="matrix(1,0,0,1,692,262.93333333333334) translate(0 55.44444444444445)"/><use xlink:href="#h" transform="matrix(1,0,0,1,692,262.93333333333334) translate(13.518518518518519 55.44444444444445)"/><use xlink:href="#i" transform="matrix(1,0,0,1,692,262.93333333333334) translate(81.35802469135803 55.44444444444445)"/><use xlink:href="#d" transform="matrix(1,0,0,1,692,262.93333333333334) translate(0 82.11111111111111)"/><use xlink:href="#j" transform="matrix(1,0,0,1,692,262.93333333333334) translate(13.518518518518519 82.11111111111111)"/><use xlink:href="#k" transform="matrix(1,0,0,1,692,262.93333333333334) translate(144.32098765432096 82.11111111111111)"/><use xlink:href="#l" transform="matrix(1,0,0,1,692,262.93333333333334) translate(165.18518518518516 82.11111111111111)"/><use xlink:href="#m" transform="matrix(1,0,0,1,692,262.93333333333334) translate(197.28395061728392 82.11111111111111)"/><path d="M1100 46a6 6 0 0 1 6-6h228a6 6 0 0 1 6 6v48a6 6 0 0 1-6 6h-228a6 6 0 0 1-6-6z" stroke="#000" stroke-opacity="0" fill="#fff" fill-opacity="0"/><use xlink:href="#n" transform="matrix(1,0,0,1,1105,45) translate(33.22222222222224 31.569444444444436)"/><path d="M1100 506a6 6 0 0 1 6-6h228a6 6 0 0 1 6 6v48a6 6 0 0 1-6 6h-228a6 6 0 0 1-6-6z" stroke="#000" stroke-opacity="0" fill="#fff" fill-opacity="0"/><use xlink:href="#o" transform="matrix(1,0,0,1,1105,505) translate(55.888888888888914 31.569444444444436)"/><path d="M840 806a6 6 0 0 1 6-6h568a6 6 0 0 1 6 6v48a6 6 0 0 1-6 6H846a6 6 0 0 1-6-6z" stroke="#3a414a" fill="#e3fae3"/><use xlink:href="#p" transform="matrix(1,0,0,1,852,812) translate(40.83950617283958 22.27777777777778)"/><use xlink:href="#q" transform="matrix(1,0,0,1,852,812) translate(314.2345679012345 22.27777777777778)"/><path d="M760 566a6 6 0 0 1 6-6h348a6 6 0 0 1 6 6v108a6 6 0 0 1-6 6H766a6 6 0 0 1-6-6z" stroke="#3a414a" fill="#fcfcca"/><path d="M760 619.2h360" stroke="#3a414a" fill="none"/><use xlink:href="#r" transform="matrix(1,0,0,1,768,568) translate(126.07499999999999 14.799999999999999)"/><use xlink:href="#s" transform="matrix(1,0,0,1,768,568) translate(149.525 36.4)"/><use xlink:href="#t" transform="matrix(1,0,0,1,772,627.2) translate(0 26.944444444444443)"/><use xlink:href="#u" transform="matrix(1,0,0,1,772,627.2) translate(65.37037037037037 26.944444444444443)"/><path d="M1460 106a6 6 0 0 1 6-6h448a6 6 0 0 1 6 6v287a6 6 0 0 1-6 6h-448a6 6 0 0 1-6-6z" stroke="#3a414a" fill="#edf5ff"/><path d="M1460 137.6h460m-460 90.83h460" stroke="#3a414a" fill="none"/><use xlink:href="#v" transform="matrix(1,0,0,1,1468,108) translate(124.94999999999999 14.6)"/><use xlink:href="#b" transform="matrix(1,0,0,1,1468,108) translate(266.6 14.6)"/><use xlink:href="#w" transform="matrix(1,0,0,1,1472,145.6) translate(0 28.611111111111114)"/><use xlink:href="#x" transform="matrix(1,0,0,1,1472,145.6) translate(0 55.27777777777778)"/><use xlink:href="#y" transform="matrix(1,0,0,1,1472,145.6) translate(13.518518518518519 55.27777777777778)"/><use xlink:href="#z" transform="matrix(1,0,0,1,1472,145.6) translate(36.91358024691358 55.27777777777778)"/><use xlink:href="#A" transform="matrix(1,0,0,1,1472,236.43333333333334) translate(0 28.611111111111107)"/><use xlink:href="#d" transform="matrix(1,0,0,1,1472,236.43333333333334) translate(0 55.27777777777778)"/><use xlink:href="#B" transform="matrix(1,0,0,1,1472,236.43333333333334) translate(13.518518518518519 55.27777777777778)"/><use xlink:href="#k" transform="matrix(1,0,0,1,1472,236.43333333333334) translate(74.01234567901236 55.27777777777778)"/><use xlink:href="#l" transform="matrix(1,0,0,1,1472,236.43333333333334) translate(94.87654320987656 55.27777777777778)"/><use xlink:href="#C" transform="matrix(1,0,0,1,1472,236.43333333333334) translate(126.97530864197532 55.27777777777778)"/><use xlink:href="#d" transform="matrix(1,0,0,1,1472,236.43333333333334) translate(0 81.94444444444443)"/><use xlink:href="#D" transform="matrix(1,0,0,1,1472,236.43333333333334) translate(13.518518518518519 81.94444444444443)"/><use xlink:href="#E" transform="matrix(1,0,0,1,1472,236.43333333333334) translate(107.34567901234567 81.94444444444443)"/><use xlink:href="#F" transform="matrix(1,0,0,1,1472,236.43333333333334) translate(175.18518518518516 81.94444444444443)"/><use xlink:href="#l" transform="matrix(1,0,0,1,1472,236.43333333333334) translate(202.2222222222222 81.94444444444443)"/><use xlink:href="#G" transform="matrix(1,0,0,1,1472,236.43333333333334) translate(234.32098765432096 81.94444444444443)"/><use xlink:href="#d" transform="matrix(1,0,0,1,1472,236.43333333333334) translate(0 108.61111111111111)"/><use xlink:href="#H" transform="matrix(1,0,0,1,1472,236.43333333333334) translate(13.518518518518519 108.61111111111111)"/><use xlink:href="#I" transform="matrix(1,0,0,1,1472,236.43333333333334) translate(145.61728395061726 108.61111111111111)"/><use xlink:href="#J" transform="matrix(1,0,0,1,1472,236.43333333333334) translate(225.61728395061726 108.61111111111111)"/><use xlink:href="#l" transform="matrix(1,0,0,1,1472,236.43333333333334) translate(341.35802469135797 108.61111111111111)"/><use xlink:href="#G" transform="matrix(1,0,0,1,1472,236.43333333333334) translate(373.45679012345676 108.61111111111111)"/><use xlink:href="#d" transform="matrix(1,0,0,1,1472,236.43333333333334) translate(0 135.27777777777777)"/><use xlink:href="#K" transform="matrix(1,0,0,1,1472,236.43333333333334) translate(13.518518518518519 135.27777777777777)"/><use xlink:href="#k" transform="matrix(1,0,0,1,1472,236.43333333333334) translate(127.03703703703702 135.27777777777777)"/><use xlink:href="#l" transform="matrix(1,0,0,1,1472,236.43333333333334) translate(147.9012345679012 135.27777777777777)"/><use xlink:href="#L" transform="matrix(1,0,0,1,1472,236.43333333333334) translate(179.99999999999997 135.27777777777777)"/><path d="M940 681v53a6 6 0 0 0 6 6h178a6 6 0 0 1 6 6v37.12" stroke="#3a414a" fill="none"/><path d="M940.5 681h-1v-.5h1z" stroke="#3a414a" stroke-width=".05" fill="#3a414a"/><path d="M1130 797.88l-4.63-14.26h9.27z" stroke="#3a414a" fill="#3a414a"/><path d="M1220 566a6 6 0 0 1 6-6h348a6 6 0 0 1 6 6v108a6 6 0 0 1-6 6h-348a6 6 0 0 1-6-6z" stroke="#3a414a" fill="#fcfcca"/><path d="M1220 619.2h360" stroke="#3a414a" fill="none"/><use xlink:href="#M" transform="matrix(1,0,0,1,1228,568) translate(115.65 14.799999999999999)"/><use xlink:href="#N" transform="matrix(1,0,0,1,1228,568) translate(93.6 36.4)"/><use xlink:href="#O" transform="matrix(1,0,0,1,1232,627.2) translate(0 26.944444444444443)"/><use xlink:href="#m" transform="matrix(1,0,0,1,1232,627.2) translate(81.35802469135801 26.944444444444443)"/><path d="M1400 681v53a6 6 0 0 1-6 6h-258a6 6 0 0 0-6 6v37.12" stroke="#3a414a" fill="none"/><path d="M1400.5 681h-1v-.5h1z" stroke="#3a414a" stroke-width=".05" fill="#3a414a"/><path d="M1130 797.88l-4.63-14.26h9.27z" stroke="#3a414a" fill="#3a414a"/><path d="M560 966a6 6 0 0 1 6-6h208a6 6 0 0 1 6 6v108a6 6 0 0 1-6 6H566a6 6 0 0 1-6-6z" stroke="#3a414a" fill="#edf5ff"/><path d="M560 1019.2h220" stroke="#3a414a" fill="none"/><use xlink:href="#M" transform="matrix(1,0,0,1,568,968) translate(45.65 14.799999999999999)"/><use xlink:href="#P" transform="matrix(1,0,0,1,568,968) translate(82.5 36.4)"/><use xlink:href="#O" transform="matrix(1,0,0,1,572,1027.2) translate(0 26.944444444444443)"/><use xlink:href="#Q" transform="matrix(1,0,0,1,572,1027.2) translate(81.35802469135801 26.944444444444443)"/><path d="M1130 861v43a6 6 0 0 1-6 6H676a6 6 0 0 0-6 6v27.12" stroke="#3a414a" fill="none"/><path d="M1130.5 861h-1v-.5h1z" stroke="#3a414a" stroke-width=".05" fill="#3a414a"/><path d="M670 957.88l-4.63-14.26h9.26z" stroke="#3a414a" fill="#3a414a"/><path d="M820 966a6 6 0 0 1 6-6h168a6 6 0 0 1 6 6v135a6 6 0 0 1-6 6H826a6 6 0 0 1-6-6z" stroke="#3a414a" fill="#edf5ff"/><path d="M820 1019.2h180" stroke="#3a414a" fill="none"/><use xlink:href="#M" transform="matrix(1,0,0,1,828,968) translate(25.65 14.799999999999999)"/><use xlink:href="#R" transform="matrix(1,0,0,1,828,968) translate(33.5 36.4)"/><use xlink:href="#S" transform="matrix(1,0,0,1,832,1027.2) translate(0 27.111111111111114)"/><use xlink:href="#T" transform="matrix(1,0,0,1,832,1027.2) translate(44.38271604938272 27.111111111111114)"/><use xlink:href="#U" transform="matrix(1,0,0,1,832,1027.2) translate(0 53.77777777777778)"/><use xlink:href="#L" transform="matrix(1,0,0,1,832,1027.2) translate(81.35802469135801 53.77777777777778)"/><path d="M1130 861v43a6 6 0 0 1-6 6H916a6 6 0 0 0-6 6v27.12" stroke="#3a414a" fill="none"/><path d="M1130.5 861h-1v-.5h1z" stroke="#3a414a" stroke-width=".05" fill="#3a414a"/><path d="M910 957.88l-4.63-14.26h9.26z" stroke="#3a414a" fill="#3a414a"/><path d="M1040 966a6 6 0 0 1 6-6h168a6 6 0 0 1 6 6v108a6 6 0 0 1-6 6h-168a6 6 0 0 1-6-6z" stroke="#3a414a" fill="#edf5ff"/><path d="M1040 1019.2h180" stroke="#3a414a" fill="none"/><use xlink:href="#M" transform="matrix(1,0,0,1,1048,968) translate(25.65 14.799999999999999)"/><use xlink:href="#V" transform="matrix(1,0,0,1,1048,968) translate(41.025 36.4)"/><use xlink:href="#O" transform="matrix(1,0,0,1,1052,1027.2) translate(0 26.944444444444443)"/><use xlink:href="#L" transform="matrix(1,0,0,1,1052,1027.2) translate(81.35802469135801 26.944444444444443)"/><path d="M1130 861v82.12" stroke="#3a414a" fill="none"/><path d="M1130.5 861h-1v-.5h1z" stroke="#3a414a" stroke-width=".05" fill="#3a414a"/><path d="M1130 957.88l-4.63-14.26h9.27z" stroke="#3a414a" fill="#3a414a"/><path d="M1260 966a6 6 0 0 1 6-6h168a6 6 0 0 1 6 6v135a6 6 0 0 1-6 6h-168a6 6 0 0 1-6-6z" stroke="#3a414a" fill="#edf5ff"/><path d="M1260 1019.2h180" stroke="#3a414a" fill="none"/><g><use xlink:href="#M" transform="matrix(1,0,0,1,1268,968) translate(25.65 14.799999999999999)"/><use xlink:href="#W" transform="matrix(1,0,0,1,1268,968) translate(49 36.4)"/></g><g><use xlink:href="#S" transform="matrix(1,0,0,1,1272,1027.2) translate(0 27.111111111111114)"/><use xlink:href="#X" transform="matrix(1,0,0,1,1272,1027.2) translate(44.38271604938272 27.111111111111114)"/><use xlink:href="#U" transform="matrix(1,0,0,1,1272,1027.2) translate(0 53.77777777777778)"/><use xlink:href="#L" transform="matrix(1,0,0,1,1272,1027.2) translate(81.35802469135801 53.77777777777778)"/></g><path d="M1130 861v43a6 6 0 0 0 6 6h199a6 6 0 0 1 6 6v27.12" stroke="#3a414a" fill="none"/><path d="M1130.5 861h-1v-.5h1z" stroke="#3a414a" stroke-width=".05" fill="#3a414a"/><path d="M1341 957.88l-4.63-14.26h9.27z" stroke="#3a414a" fill="#3a414a"/><path d="M1760 966a6 6 0 0 1 6-6h348a6 6 0 0 1 6 6v239a6 6 0 0 1-6 6h-348a6 6 0 0 1-6-6z" stroke="#3a414a" fill="#ffdda6"/><path d="M1760 1029.33h360m-360 90.84h360" stroke="#3a414a" fill="none"/><g><use xlink:href="#Y" transform="matrix(1,0,0,1,1768,968) translate(62.89506172839506 18.111111111111114)"/><use xlink:href="#Z" transform="matrix(1,0,0,1,1768,968) translate(147.89506172839504 18.111111111111114)"/><use xlink:href="#aa" transform="matrix(1,0,0,1,1768,968) translate(115.2716049382716 44.777777777777786)"/></g><g><use xlink:href="#ab" transform="matrix(1,0,0,1,1772,1037.3333333333333) translate(0 28.611111111111114)"/><use xlink:href="#ac" transform="matrix(1,0,0,1,1772,1037.3333333333333) translate(0 55.27777777777778)"/><use xlink:href="#ad" transform="matrix(1,0,0,1,1772,1037.3333333333333) translate(13.518518518518519 55.27777777777778)"/></g><g><use xlink:href="#ae" transform="matrix(1,0,0,1,1772,1128.1666666666665) translate(0 28.611111111111114)"/><use xlink:href="#d" transform="matrix(1,0,0,1,1772,1128.1666666666665) translate(0 55.27777777777778)"/><use xlink:href="#af" transform="matrix(1,0,0,1,1772,1128.1666666666665) translate(13.518518518518519 55.27777777777778)"/></g><path d="M1797.75 829.58l1 .24.93.4.87.52.78.66.66.78.53.87.4.94.22.98.08 1v107.14h-1v-107.1l-.07-.88-.2-.84-.33-.8-.45-.73-.56-.66-.66-.55-.73-.45-.8-.33-.84-.2-.9-.07H1646.3v-1h150.47zm-376.75.92v-1h139.5v1z" stroke="#3a414a" stroke-width=".05" fill="#3a414a"/><path d="M1421 830.5h-.5v-1h.5z" fill="#3a414a"/><path d="M1421.04 830.52h-.57v-1.04h.57zm-.5-1v.96h.45v-.96z" stroke="#3a414a" stroke-width=".05" fill="#3a414a"/><path d="M1802.73 957.88l-4.63-14.26h9.27z" fill="#3a414a"/><path d="M1802.73 959.5l-5.32-16.38h10.66zm-3.94-15.38l3.93 12.14 3.95-12.14z" stroke="#3a414a" stroke-width=".05" fill="#3a414a"/><g><use xlink:href="#ag" transform="matrix(1,0,0,1,1560.5037804982182,819.3333333333334) translate(0 14.222222222222223)"/></g><path d="M1350.5 1143.72l.07.88.2.84.33.8.45.74.56.65.67.56.73.44.8.33.84.2.88.07h145.58v1h-145.62l-1-.07-1-.24-.93-.4-.87-.53-.78-.66-.66-.77-.53-.87-.38-.95-.24-1-.08-1V1108h1zm392.62 5.52v1h-177.47v-1z" stroke="#3a414a" stroke-width=".05" fill="#3a414a"/><path d="M1350.5 1108h-1v-.5h1z" fill="#3a414a"/><path d="M1350.53 1108.04h-1.06v-.57h1.06zm-1-.5v.45h.94v-.47z" stroke="#3a414a" stroke-width=".05" fill="#3a414a"/><path d="M1757.88 1149.74l-14.26 4.64v-9.27z" fill="#3a414a"/><path d="M1759.5 1149.74l-16.38 5.33v-10.65zm-15.38 3.95l12.14-3.96-12.14-3.94z" stroke="#3a414a" stroke-width=".05" fill="#3a414a"/><g><use xlink:href="#ah" transform="matrix(1,0,0,1,1501.6032967019055,1139.077384093829) translate(0 14.222222222222223)"/></g><path d="M1130.5 1166.13l.07.88.2.85.33.8.45.74.56.64.67.56.73.45.8.33.84.2.88.08h280.78v1h-280.82l-1-.08-1-.24-.93-.4-.87-.53-.78-.65-.66-.77-.53-.87-.38-.94-.24-1-.08-1V1081h1zm612.62 5.52v1h-262.27v-1z" stroke="#3a414a" stroke-width=".05" fill="#3a414a"/><path d="M1130.5 1081h-1v-.5h1z" fill="#3a414a"/><path d="M1130.53 1081.04h-1.06v-.57h1.06zm-1-.5v.45h.94v-.47z" stroke="#3a414a" stroke-width=".05" fill="#3a414a"/><path d="M1757.88 1172.15l-14.26 4.64v-9.28z" fill="#3a414a"/><path d="M1759.5 1172.15l-16.38 5.33v-10.65zm-15.38 3.95l12.14-3.94-12.14-3.95z" stroke="#3a414a" stroke-width=".05" fill="#3a414a"/><g><use xlink:href="#ah" transform="matrix(1,0,0,1,1416.8029149095119,1161.4880899703962) translate(0 14.222222222222223)"/></g><path d="M910.5 1188.55l.07.88.2.84.33.8.45.73.56.65.67.56.73.46.8.34.84.2.88.07h392.3v1H915.98l-1-.08-1-.25-.93-.4-.87-.52-.78-.67-.66-.77-.53-.88-.38-.94-.24-1-.08-1V1108h1zm832.62 5.52v1h-370.75v-1z" stroke="#3a414a" stroke-width=".05" fill="#3a414a"/><path d="M910.5 1108h-1v-.5h1z" fill="#3a414a"/><path d="M910.52 1108.04h-1.04v-.57h1.04zm-1-.5v.45h.96v-.47z" stroke="#3a414a" stroke-width=".05" fill="#3a414a"/><path d="M1757.88 1194.57l-14.26 4.63v-9.27z" fill="#3a414a"/><path d="M1759.5 1194.57l-16.38 5.32v-10.66zm-15.38 3.94l12.14-3.93-12.14-3.95z" stroke="#3a414a" stroke-width=".05" fill="#3a414a"/><g><use xlink:href="#ah" transform="matrix(1,0,0,1,1308.3215031906527,1183.898808546451) translate(0 14.222222222222223)"/></g><path d="M2155.52 810.25l1 .24.93.38.87.53.78.67.66.78.53.87.38.94.24 1 .08 1v262.86l-.08 1-.24 1-.4.93-.52.87-.66.78-.78.66-.87.53-.94.38-.98.24-1 .08H2121v-1h33.48l.88-.07.84-.2.8-.33.73-.45.66-.56.55-.67.45-.73.33-.8.2-.84.07-.88v-262.8l-.07-.87-.2-.83-.33-.8-.45-.73-.56-.66-.67-.56-.73-.45-.8-.33-.84-.2-.88-.07H1902.2v-1h252.32zm-718.64.92v-1h415.14v1z" stroke="#3a414a" stroke-width=".05" fill="#3a414a"/><path d="M2121 1086h-.5v-1h.5z" fill="#3a414a"/><path d="M2121.04 1086.03h-.57v-1.06h.57zm-.5-1v.94h.45v-.94z" stroke="#3a414a" stroke-width=".05" fill="#3a414a"/><path d="M1436.38 815.3l-14.26-4.63 14.26-4.63z" fill="#3a414a"/><path d="M1436.88 816l-16.38-5.33 16.38-5.32zm-13.14-5.33l12.14 3.95v-7.9z" stroke="#3a414a" stroke-width=".05" fill="#3a414a"/><g><use xlink:href="#ai" transform="matrix(1,0,0,1,1852.0252521657399,800.0038537013659) translate(0 14.222222222222223)"/></g><path d="M1040 216a6 6 0 0 1 6-6h348a6 6 0 0 1 6 6v68a6 6 0 0 1-6 6h-348a6 6 0 0 1-6-6z" stroke="#3a414a" fill="#e3fae3"/><path d="M1040 247.6h360" stroke="#3a414a" fill="none"/><g><use xlink:href="#aj" transform="matrix(1,0,0,1,1048,218) translate(87.27499999999999 14.6)"/><use xlink:href="#ak" transform="matrix(1,0,0,1,1048,218) translate(169.125 14.6)"/></g><path d="M981 249.5h42.12" stroke="#3a414a" fill="none"/><path d="M981 250h-.5v-1h.5z" stroke="#3a414a" stroke-width=".05" fill="#3a414a"/><path d="M1037.88 249.5l-14.26 4.63v-9.26z" stroke="#3a414a" fill="#3a414a"/><path d="M1401 250h42.12" stroke="#3a414a" fill="none"/><path d="M1401 250.5h-.5v-1h.5z" stroke="#3a414a" stroke-width=".05" fill="#3a414a"/><path d="M1457.88 250l-14.26 4.63v-9.26z" stroke="#3a414a" fill="#3a414a"/><defs><path d="M238-95c0 69-44 99-111 99C63 4 22-25 22-93v-155h51v151c-1 38 19 59 55 60 90 1 49-130 58-211h52v153" id="al"/><path d="M137-138c1-29-70-34-71-4 15 46 118 7 119 86 1 83-164 76-172 9l43-7c4 19 20 25 44 25 33 8 57-30 24-41C81-84 22-81 20-136c-2-80 154-74 161-7" id="am"/><path d="M185-48c-13 30-37 53-82 52C43 2 14-33 14-96s30-98 90-98c62 0 83 45 84 108H66c0 31 8 55 39 56 18 0 30-7 34-22zm-45-69c5-46-57-63-70-21-2 6-4 13-4 21h74" id="an"/><path d="M169-182c-1-43-94-46-97-3 18 66 151 10 154 114 3 95-165 93-204 36-6-8-10-19-12-30l50-8c3 46 112 56 116 5-17-69-150-10-154-114-4-87 153-88 188-35 5 8 8 18 10 28" id="ao"/><path d="M115-3C79 11 28 4 28-45v-112H4v-33h27l15-45h31v45h36v33H77v99c-1 23 16 31 38 25v30" id="ap"/><path d="M110-194c64 0 96 36 96 99 0 64-35 99-97 99-61 0-95-36-95-99 0-62 34-99 96-99zm-1 164c35 0 45-28 45-65 0-40-10-65-43-65-34 0-45 26-45 65 0 36 10 65 43 65" id="aq"/><path d="M135-150c-39-12-60 13-60 57V0H25l-1-190h47c2 13-1 29 3 40 6-28 27-53 61-41v41" id="ar"/><path d="M24-248c93 1 206-16 204 79-1 75-69 88-152 82V0H24v-248zm52 121c47 0 100 7 100-41 0-47-54-39-100-39v80" id="as"/><path d="M135-194c53 0 70 44 70 98 0 56-19 98-73 100-31 1-45-17-59-34 3 33 2 69 2 105H25l-1-265h48c2 10 0 23 3 31 11-24 29-35 60-35zM114-30c33 0 39-31 40-66 0-38-9-64-40-64-56 0-55 130 0 130" id="at"/><g id="a"><use transform="matrix(0.05,0,0,0.05,0,0)" xlink:href="#al"/><use transform="matrix(0.05,0,0,0.05,12.950000000000001,0)" xlink:href="#am"/><use transform="matrix(0.05,0,0,0.05,22.950000000000003,0)" xlink:href="#an"/><use transform="matrix(0.05,0,0,0.05,32.95,0)" xlink:href="#ao"/><use transform="matrix(0.05,0,0,0.05,44.95,0)" xlink:href="#ap"/><use transform="matrix(0.05,0,0,0.05,50.900000000000006,0)" xlink:href="#aq"/><use transform="matrix(0.05,0,0,0.05,61.85,0)" xlink:href="#ar"/><use transform="matrix(0.05,0,0,0.05,68.85000000000001,0)" xlink:href="#an"/><use transform="matrix(0.05,0,0,0.05,78.85000000000001,0)" xlink:href="#as"/><use transform="matrix(0.05,0,0,0.05,90.85000000000001,0)" xlink:href="#ar"/><use transform="matrix(0.05,0,0,0.05,97.85000000000001,0)" xlink:href="#aq"/><use transform="matrix(0.05,0,0,0.05,108.80000000000001,0)" xlink:href="#at"/><use transform="matrix(0.05,0,0,0.05,119.75,0)" xlink:href="#am"/></g><path d="M67-93c0 74 22 123 53 168H70C40 30 18-18 18-93s22-123 52-168h50c-32 44-53 94-53 168" id="au"/><path d="M136-208V0H84v-208H4v-40h212v40h-80" id="av"/><path d="M123 10C108 53 80 86 19 72V37c35 8 53-11 59-39L3-190h52l48 148c12-52 28-100 44-148h51" id="aw"/><path d="M102-93c0 74-22 123-52 168H0C30 29 54-18 53-93c0-74-22-123-53-168h50c30 45 52 94 52 168" id="ax"/><g id="b"><use transform="matrix(0.05,0,0,0.05,0,0)" xlink:href="#au"/><use transform="matrix(0.05,0,0,0.05,5.95,0)" xlink:href="#av"/><use transform="matrix(0.05,0,0,0.05,15.55,0)" xlink:href="#aw"/><use transform="matrix(0.05,0,0,0.05,25.55,0)" xlink:href="#at"/><use transform="matrix(0.05,0,0,0.05,36.5,0)" xlink:href="#an"/><use transform="matrix(0.05,0,0,0.05,46.5,0)" xlink:href="#ax"/></g><path fill="#3a414a" d="M24 0v-248h52V0H24" id="ay"/><path fill="#3a414a" d="M135-194c87-1 58 113 63 194h-50c-7-57 23-157-34-157-59 0-34 97-39 157H25l-1-190h47c2 12-1 28 3 38 12-26 28-41 61-42" id="az"/><path fill="#3a414a" d="M135-194c53 0 70 44 70 98 0 56-19 98-73 100-31 1-45-17-59-34 3 33 2 69 2 105H25l-1-265h48c2 10 0 23 3 31 11-24 29-35 60-35zM114-30c33 0 39-31 40-66 0-38-9-64-40-64-56 0-55 130 0 130" id="aA"/><path fill="#3a414a" d="M85 4C-2 5 27-109 22-190h50c7 57-23 150 33 157 60-5 35-97 40-157h50l1 190h-47c-2-12 1-28-3-38-12 25-28 42-61 42" id="aB"/><path fill="#3a414a" d="M115-3C79 11 28 4 28-45v-112H4v-33h27l15-45h31v45h36v33H77v99c-1 23 16 31 38 25v30" id="aC"/><path fill="#3a414a" d="M137-138c1-29-70-34-71-4 15 46 118 7 119 86 1 83-164 76-172 9l43-7c4 19 20 25 44 25 33 8 57-30 24-41C81-84 22-81 20-136c-2-80 154-74 161-7" id="aD"/><g id="c"><use transform="matrix(0.06172839506172839,0,0,0.06172839506172839,0,0)" xlink:href="#ay"/><use transform="matrix(0.06172839506172839,0,0,0.06172839506172839,6.172839506172839,0)" xlink:href="#az"/><use transform="matrix(0.06172839506172839,0,0,0.06172839506172839,19.691358024691358,0)" xlink:href="#aA"/><use transform="matrix(0.06172839506172839,0,0,0.06172839506172839,33.20987654320987,0)" xlink:href="#aB"/><use transform="matrix(0.06172839506172839,0,0,0.06172839506172839,46.72839506172839,0)" xlink:href="#aC"/><use transform="matrix(0.06172839506172839,0,0,0.06172839506172839,54.07407407407407,0)" xlink:href="#aD"/><path fill="#3a414a" d="M-1.1 1.2h68.63V3.5H-1.1z"/></g><path fill="#3a414a" d="M16-82v-28h88v28H16" id="aE"/><use transform="matrix(0.06172839506172839,0,0,0.06172839506172839,0,0)" xlink:href="#aE" id="d"/><path fill="#3a414a" d="M127-220V0H93v-220H8v-28h204v28h-85" id="aF"/><path fill="#3a414a" d="M33-154v-36h34v36H33zM33 0v-36h34V0H33" id="aG"/><g id="e"><use transform="matrix(0.06172839506172839,0,0,0.06172839506172839,0,0)" xlink:href="#aF"/><use transform="matrix(0.06172839506172839,0,0,0.06172839506172839,11.049382716049381,0)" xlink:href="#aG"/></g><path fill="#3a414a" d="M143 4C61 4 22-44 18-125c-5-107 100-154 193-111 17 8 29 25 37 43l-32 9c-13-25-37-40-76-40-61 0-88 39-88 99 0 61 29 100 91 101 35 0 62-11 79-27v-45h-74v-28h105v86C228-13 192 4 143 4" id="aH"/><path fill="#3a414a" d="M100-194c63 0 86 42 84 106H49c0 40 14 67 53 68 26 1 43-12 49-29l28 8c-11 28-37 45-77 45C44 4 14-33 15-96c1-61 26-98 85-98zm52 81c6-60-76-77-97-28-3 7-6 17-6 28h103" id="aI"/><path fill="#3a414a" d="M117-194c89-4 53 116 60 194h-32v-121c0-31-8-49-39-48C34-167 62-67 57 0H25l-1-190h30c1 10-1 24 2 32 11-22 29-35 61-36" id="aJ"/><path fill="#3a414a" d="M114-163C36-179 61-72 57 0H25l-1-190h30c1 12-1 29 2 39 6-27 23-49 58-41v29" id="aK"/><path fill="#3a414a" d="M24-231v-30h32v30H24zM24 0v-190h32V0H24" id="aL"/><path fill="#3a414a" d="M96-169c-40 0-48 33-48 73s9 75 48 75c24 0 41-14 43-38l32 2c-6 37-31 61-74 61-59 0-76-41-82-99-10-93 101-131 147-64 4 7 5 14 7 22l-32 3c-4-21-16-35-41-35" id="aM"/><g id="f"><use transform="matrix(0.06172839506172839,0,0,0.06172839506172839,0,0)" xlink:href="#aH"/><use transform="matrix(0.06172839506172839,0,0,0.06172839506172839,17.28395061728395,0)" xlink:href="#aI"/><use transform="matrix(0.06172839506172839,0,0,0.06172839506172839,29.629629629629626,0)" xlink:href="#aJ"/><use transform="matrix(0.06172839506172839,0,0,0.06172839506172839,41.9753086419753,0)" xlink:href="#aI"/><use transform="matrix(0.06172839506172839,0,0,0.06172839506172839,54.32098765432098,0)" xlink:href="#aK"/><use transform="matrix(0.06172839506172839,0,0,0.06172839506172839,61.66666666666666,0)" xlink:href="#aL"/><use transform="matrix(0.06172839506172839,0,0,0.06172839506172839,66.5432098765432,0)" xlink:href="#aM"/></g><path fill="#3a414a" d="M140-251c80 0 125 45 125 126S219 4 139 4C58 4 15-44 15-125s44-126 125-126zm-1 214c52 0 73-35 73-88 0-50-21-86-72-86-52 0-73 35-73 86s22 88 72 88" id="aN"/><g id="g"><use transform="matrix(0.06172839506172839,0,0,0.06172839506172839,0,0)" xlink:href="#aN"/><use transform="matrix(0.06172839506172839,0,0,0.06172839506172839,17.28395061728395,0)" xlink:href="#aB"/><use transform="matrix(0.06172839506172839,0,0,0.06172839506172839,30.80246913580247,0)" xlink:href="#aC"/><use transform="matrix(0.06172839506172839,0,0,0.06172839506172839,38.148148148148145,0)" xlink:href="#aA"/><use transform="matrix(0.06172839506172839,0,0,0.06172839506172839,51.666666666666664,0)" xlink:href="#aB"/><use transform="matrix(0.06172839506172839,0,0,0.06172839506172839,65.18518518518518,0)" xlink:href="#aC"/><use transform="matrix(0.06172839506172839,0,0,0.06172839506172839,72.53086419753086,0)" xlink:href="#aD"/><path fill="#3a414a" d="M-1.1 1.2H86V3.5H-1.1z"/></g><path fill="#3a414a" d="M141-36C126-15 110 5 73 4 37 3 15-17 15-53c-1-64 63-63 125-63 3-35-9-54-41-54-24 1-41 7-42 31l-33-3c5-37 33-52 76-52 45 0 72 20 72 64v82c-1 20 7 32 28 27v20c-31 9-61-2-59-35zM48-53c0 20 12 33 32 33 41-3 63-29 60-74-43 2-92-5-92 41" id="aO"/><path fill="#3a414a" d="M210-169c-67 3-38 105-44 169h-31v-121c0-29-5-50-35-48C34-165 62-65 56 0H25l-1-190h30c1 10-1 24 2 32 10-44 99-50 107 0 11-21 27-35 58-36 85-2 47 119 55 194h-31v-121c0-29-5-49-35-48" id="aP"/><g id="h"><use transform="matrix(0.06172839506172839,0,0,0.06172839506172839,0,0)" xlink:href="#aJ"/><use transform="matrix(0.06172839506172839,0,0,0.06172839506172839,12.345679012345679,0)" xlink:href="#aO"/><use transform="matrix(0.06172839506172839,0,0,0.06172839506172839,24.691358024691358,0)" xlink:href="#aP"/><use transform="matrix(0.06172839506172839,0,0,0.06172839506172839,43.148148148148145,0)" xlink:href="#aI"/><use transform="matrix(0.06172839506172839,0,0,0.06172839506172839,55.49382716049382,0)" xlink:href="#aG"/></g><path fill="#3a414a" d="M135-143c-3-34-86-38-87 0 15 53 115 12 119 90S17 21 10-45l28-5c4 36 97 45 98 0-10-56-113-15-118-90-4-57 82-63 122-42 12 7 21 19 24 35" id="aQ"/><path fill="#3a414a" d="M59-47c-2 24 18 29 38 22v24C64 9 27 4 27-40v-127H5v-23h24l9-43h21v43h35v23H59v120" id="aR"/><path fill="#3a414a" d="M177-190C167-65 218 103 67 71c-23-6-38-20-44-43l32-5c15 47 100 32 89-28v-30C133-14 115 1 83 1 29 1 15-40 15-95c0-56 16-97 71-98 29-1 48 16 59 35 1-10 0-23 2-32h30zM94-22c36 0 50-32 50-73 0-42-14-75-50-75-39 0-46 34-46 75s6 73 46 73" id="aS"/><g id="i"><use transform="matrix(0.06172839506172839,0,0,0.06172839506172839,0,0)" xlink:href="#aQ"/><use transform="matrix(0.06172839506172839,0,0,0.06172839506172839,11.11111111111111,0)" xlink:href="#aR"/><use transform="matrix(0.06172839506172839,0,0,0.06172839506172839,17.28395061728395,0)" xlink:href="#aK"/><use transform="matrix(0.06172839506172839,0,0,0.06172839506172839,24.629629629629626,0)" xlink:href="#aL"/><use transform="matrix(0.06172839506172839,0,0,0.06172839506172839,29.50617283950617,0)" xlink:href="#aJ"/><use transform="matrix(0.06172839506172839,0,0,0.06172839506172839,41.85185185185185,0)" xlink:href="#aS"/></g><path fill="#3a414a" d="M85-194c31 0 48 13 60 33l-1-100h32l1 261h-30c-2-10 0-23-3-31C134-8 116 4 85 4 32 4 16-35 15-94c0-66 23-100 70-100zm9 24c-40 0-46 34-46 75 0 40 6 74 45 74 42 0 51-32 51-76 0-42-9-74-50-73" id="aT"/><path fill="#3a414a" d="M101-234c-31-9-42 10-38 44h38v23H63V0H32v-167H5v-23h27c-7-52 17-82 69-68v24" id="aU"/><path fill="#3a414a" d="M84 4C-5 8 30-112 23-190h32v120c0 31 7 50 39 49 72-2 45-101 50-169h31l1 190h-30c-1-10 1-25-2-33-11 22-28 36-60 37" id="aV"/><path fill="#3a414a" d="M24 0v-261h32V0H24" id="aW"/><path fill="#3a414a" d="M185-189c-5-48-123-54-124 2 14 75 158 14 163 119 3 78-121 87-175 55-17-10-28-26-33-46l33-7c5 56 141 63 141-1 0-78-155-14-162-118-5-82 145-84 179-34 5 7 8 16 11 25" id="aX"/><g id="j"><use transform="matrix(0.06172839506172839,0,0,0.06172839506172839,0,0)" xlink:href="#aT"/><use transform="matrix(0.06172839506172839,0,0,0.06172839506172839,12.345679012345679,0)" xlink:href="#aI"/><use transform="matrix(0.06172839506172839,0,0,0.06172839506172839,24.691358024691358,0)" xlink:href="#aU"/><use transform="matrix(0.06172839506172839,0,0,0.06172839506172839,30.864197530864196,0)" xlink:href="#aO"/><use transform="matrix(0.06172839506172839,0,0,0.06172839506172839,43.20987654320987,0)" xlink:href="#aV"/><use transform="matrix(0.06172839506172839,0,0,0.06172839506172839,55.55555555555555,0)" xlink:href="#aW"/><use transform="matrix(0.06172839506172839,0,0,0.06172839506172839,60.432098765432094,0)" xlink:href="#aR"/><use transform="matrix(0.06172839506172839,0,0,0.06172839506172839,66.60493827160494,0)" xlink:href="#aX"/><use transform="matrix(0.06172839506172839,0,0,0.06172839506172839,81.41975308641975,0)" xlink:href="#aR"/><use transform="matrix(0.06172839506172839,0,0,0.06172839506172839,87.59259259259258,0)" xlink:href="#aO"/><use transform="matrix(0.06172839506172839,0,0,0.06172839506172839,99.93827160493827,0)" xlink:href="#aR"/><use transform="matrix(0.06172839506172839,0,0,0.06172839506172839,106.1111111111111,0)" xlink:href="#aI"/><use transform="matrix(0.06172839506172839,0,0,0.06172839506172839,118.45679012345678,0)" xlink:href="#aG"/></g><path fill="#3a414a" d="M87 75C49 33 22-17 22-94c0-76 28-126 65-167h31c-38 41-64 92-64 168S80 34 118 75H87" id="aY"/><path fill="#3a414a" d="M33-261c38 41 65 92 65 168S71 34 33 75H2C39 34 66-17 66-93S39-220 2-261h31" id="aZ"/><g id="k"><use transform="matrix(0.06172839506172839,0,0,0.06172839506172839,0,0)" xlink:href="#aY"/><use transform="matrix(0.06172839506172839,0,0,0.06172839506172839,7.345679012345679,0)" xlink:href="#aZ"/></g><path fill="#3a414a" d="M18-150v-26h174v26H18zm0 90v-26h174v26H18" id="ba"/><path fill="#3a414a" d="M18-27v-27l151-64-151-65v-27l175 74v36" id="bb"/><g id="l"><use transform="matrix(0.06172839506172839,0,0,0.06172839506172839,0,0)" xlink:href="#ba"/><use transform="matrix(0.06172839506172839,0,0,0.06172839506172839,12.962962962962962,0)" xlink:href="#bb"/></g><use transform="matrix(0.06172839506172839,0,0,0.06172839506172839,0,0)" xlink:href="#aF" id="m"/><path fill="#3a414a" d="M169-182c-1-43-94-46-97-3 18 66 151 10 154 114 3 95-165 93-204 36-6-8-10-19-12-30l50-8c3 46 112 56 116 5-17-69-150-10-154-114-4-87 153-88 188-35 5 8 8 18 10 28" id="bc"/><path fill="#3a414a" d="M25-224v-37h50v37H25zM25 0v-190h50V0H25" id="bd"/><path fill="#3a414a" d="M195-6C206 82 75 100 31 46c-4-6-6-13-8-21l49-6c3 16 16 24 34 25 40 0 42-37 40-79-11 22-30 35-61 35-53 0-70-43-70-97 0-56 18-96 73-97 30 0 46 14 59 34l2-30h47zm-90-29c32 0 41-27 41-63 0-35-9-62-40-62-32 0-39 29-40 63 0 36 9 62 39 62" id="be"/><path fill="#3a414a" d="M133-34C117-15 103 5 69 4 32 3 11-16 11-54c-1-60 55-63 116-61 1-26-3-47-28-47-18 1-26 9-28 27l-52-2c7-38 36-58 82-57s74 22 75 68l1 82c-1 14 12 18 25 15v27c-30 8-71 5-69-32zm-48 3c29 0 43-24 42-57-32 0-66-3-65 30 0 17 8 27 23 27" id="bf"/><path fill="#3a414a" d="M135-150c-39-12-60 13-60 57V0H25l-1-190h47c2 13-1 29 3 40 6-28 27-53 61-41v41" id="bg"/><path fill="#3a414a" d="M185-48c-13 30-37 53-82 52C43 2 14-33 14-96s30-98 90-98c62 0 83 45 84 108H66c0 31 8 55 39 56 18 0 30-7 34-22zm-45-69c5-46-57-63-70-21-2 6-4 13-4 21h74" id="bh"/><g id="n"><use transform="matrix(0.0987654320987654,0,0,0.0987654320987654,0,0)" xlink:href="#bc"/><use transform="matrix(0.0987654320987654,0,0,0.0987654320987654,23.703703703703695,0)" xlink:href="#bd"/><use transform="matrix(0.0987654320987654,0,0,0.0987654320987654,33.58024691358023,0)" xlink:href="#be"/><use transform="matrix(0.0987654320987654,0,0,0.0987654320987654,55.20987654320986,0)" xlink:href="#az"/><use transform="matrix(0.0987654320987654,0,0,0.0987654320987654,76.83950617283948,0)" xlink:href="#bf"/><use transform="matrix(0.0987654320987654,0,0,0.0987654320987654,96.59259259259255,0)" xlink:href="#aC"/><use transform="matrix(0.0987654320987654,0,0,0.0987654320987654,108.34567901234564,0)" xlink:href="#aB"/><use transform="matrix(0.0987654320987654,0,0,0.0987654320987654,129.97530864197526,0)" xlink:href="#bg"/><use transform="matrix(0.0987654320987654,0,0,0.0987654320987654,143.80246913580243,0)" xlink:href="#bh"/><path fill="#3a414a" d="M-1.78 1.9h167.1v3.74H-1.77z"/></g><path fill="#3a414a" d="M24-248c120-7 223 5 221 122C244-46 201 0 124 0H24v-248zM76-40c74 7 117-18 117-86 0-67-45-88-117-82v168" id="bi"/><g id="o"><use transform="matrix(0.0987654320987654,0,0,0.0987654320987654,0,0)" xlink:href="#bi"/><use transform="matrix(0.0987654320987654,0,0,0.0987654320987654,25.58024691358024,0)" xlink:href="#bh"/><use transform="matrix(0.0987654320987654,0,0,0.0987654320987654,45.333333333333314,0)" xlink:href="#aD"/><use transform="matrix(0.0987654320987654,0,0,0.0987654320987654,65.08641975308639,0)" xlink:href="#bd"/><use transform="matrix(0.0987654320987654,0,0,0.0987654320987654,74.96296296296293,0)" xlink:href="#be"/><use transform="matrix(0.0987654320987654,0,0,0.0987654320987654,96.59259259259255,0)" xlink:href="#az"/><path fill="#3a414a" d="M-1.78 1.9H120v3.74H-1.78z"/></g><path fill="#3a414a" d="M100-194c62-1 85 37 85 99 1 63-27 99-86 99S16-35 15-95c0-66 28-99 85-99zM99-20c44 1 53-31 53-75 0-43-8-75-51-75s-53 32-53 75 10 74 51 75" id="bj"/><path fill="#3a414a" d="M18-100v-36l175-74v27L42-118l151 64v27" id="bk"/><path fill="#3a414a" d="M47-170H22l-4-78h33" id="bl"/><path fill="#3a414a" d="M68-38c1 34 0 65-14 84H32c9-13 17-26 17-46H33v-38h35" id="bm"/><g id="p"><use transform="matrix(0.06172839506172839,0,0,0.06172839506172839,0,0)" xlink:href="#aV"/><use transform="matrix(0.06172839506172839,0,0,0.06172839506172839,12.345679012345679,0)" xlink:href="#aQ"/><use transform="matrix(0.06172839506172839,0,0,0.06172839506172839,23.45679012345679,0)" xlink:href="#aI"/><use transform="matrix(0.06172839506172839,0,0,0.06172839506172839,35.80246913580247,0)" xlink:href="#aX"/><use transform="matrix(0.06172839506172839,0,0,0.06172839506172839,50.61728395061728,0)" xlink:href="#aR"/><use transform="matrix(0.06172839506172839,0,0,0.06172839506172839,56.79012345679012,0)" xlink:href="#bj"/><use transform="matrix(0.06172839506172839,0,0,0.06172839506172839,69.1358024691358,0)" xlink:href="#aK"/><use transform="matrix(0.06172839506172839,0,0,0.06172839506172839,76.48148148148148,0)" xlink:href="#aI"/><use transform="matrix(0.06172839506172839,0,0,0.06172839506172839,88.82716049382717,0)" xlink:href="#bk"/><use transform="matrix(0.06172839506172839,0,0,0.06172839506172839,101.79012345679013,0)" xlink:href="#aF"/><use transform="matrix(0.06172839506172839,0,0,0.06172839506172839,115.30864197530865,0)" xlink:href="#bb"/><use transform="matrix(0.06172839506172839,0,0,0.06172839506172839,128.2716049382716,0)" xlink:href="#aY"/><use transform="matrix(0.06172839506172839,0,0,0.06172839506172839,135.61728395061726,0)" xlink:href="#bl"/><use transform="matrix(0.06172839506172839,0,0,0.06172839506172839,139.81481481481478,0)" xlink:href="#aP"/><use transform="matrix(0.06172839506172839,0,0,0.06172839506172839,158.27160493827157,0)" xlink:href="#bj"/><use transform="matrix(0.06172839506172839,0,0,0.06172839506172839,170.61728395061724,0)" xlink:href="#aT"/><use transform="matrix(0.06172839506172839,0,0,0.06172839506172839,182.9629629629629,0)" xlink:href="#aO"/><use transform="matrix(0.06172839506172839,0,0,0.06172839506172839,195.30864197530857,0)" xlink:href="#aW"/><use transform="matrix(0.06172839506172839,0,0,0.06172839506172839,200.1851851851851,0)" xlink:href="#aE"/><use transform="matrix(0.06172839506172839,0,0,0.06172839506172839,207.53086419753078,0)" xlink:href="#aQ"/><use transform="matrix(0.06172839506172839,0,0,0.06172839506172839,218.6419753086419,0)" xlink:href="#aR"/><use transform="matrix(0.06172839506172839,0,0,0.06172839506172839,224.81481481481472,0)" xlink:href="#bj"/><use transform="matrix(0.06172839506172839,0,0,0.06172839506172839,237.1604938271604,0)" xlink:href="#aK"/><use transform="matrix(0.06172839506172839,0,0,0.06172839506172839,244.50617283950606,0)" xlink:href="#aI"/><use transform="matrix(0.06172839506172839,0,0,0.06172839506172839,256.85185185185173,0)" xlink:href="#bl"/><use transform="matrix(0.06172839506172839,0,0,0.06172839506172839,261.04938271604925,0)" xlink:href="#bm"/></g><path fill="#3a414a" d="M30-248c118-7 216 8 213 122C240-48 200 0 122 0H30v-248zM63-27c89 8 146-16 146-99s-60-101-146-95v194" id="bn"/><g id="q"><use transform="matrix(0.06172839506172839,0,0,0.06172839506172839,0,0)" xlink:href="#aP"/><use transform="matrix(0.06172839506172839,0,0,0.06172839506172839,18.456790123456788,0)" xlink:href="#bj"/><use transform="matrix(0.06172839506172839,0,0,0.06172839506172839,30.80246913580247,0)" xlink:href="#aT"/><use transform="matrix(0.06172839506172839,0,0,0.06172839506172839,43.148148148148145,0)" xlink:href="#aO"/><use transform="matrix(0.06172839506172839,0,0,0.06172839506172839,55.49382716049382,0)" xlink:href="#aW"/><use transform="matrix(0.06172839506172839,0,0,0.06172839506172839,60.37037037037037,0)" xlink:href="#aX"/><use transform="matrix(0.06172839506172839,0,0,0.06172839506172839,75.18518518518518,0)" xlink:href="#aR"/><use transform="matrix(0.06172839506172839,0,0,0.06172839506172839,81.35802469135801,0)" xlink:href="#aO"/><use transform="matrix(0.06172839506172839,0,0,0.06172839506172839,93.7037037037037,0)" xlink:href="#aR"/><use transform="matrix(0.06172839506172839,0,0,0.06172839506172839,99.87654320987653,0)" xlink:href="#aI"/><use transform="matrix(0.06172839506172839,0,0,0.06172839506172839,112.22222222222221,0)" xlink:href="#bn"/><use transform="matrix(0.06172839506172839,0,0,0.06172839506172839,128.20987654320987,0)" xlink:href="#aI"/><use transform="matrix(0.06172839506172839,0,0,0.06172839506172839,140.55555555555554,0)" xlink:href="#aU"/><use transform="matrix(0.06172839506172839,0,0,0.06172839506172839,146.72839506172838,0)" xlink:href="#aO"/><use transform="matrix(0.06172839506172839,0,0,0.06172839506172839,159.07407407407405,0)" xlink:href="#aV"/><use transform="matrix(0.06172839506172839,0,0,0.06172839506172839,171.41975308641972,0)" xlink:href="#aW"/><use transform="matrix(0.06172839506172839,0,0,0.06172839506172839,176.29629629629625,0)" xlink:href="#aR"/><use transform="matrix(0.06172839506172839,0,0,0.06172839506172839,182.46913580246908,0)" xlink:href="#aQ"/><use transform="matrix(0.06172839506172839,0,0,0.06172839506172839,193.5802469135802,0)" xlink:href="#aZ"/></g><path d="M15-91v-56l181-69v40L49-119l147 57v40" id="bo"/><path d="M25-224v-37h50v37H25zM25 0v-190h50V0H25" id="bp"/><path d="M135-194c87-1 58 113 63 194h-50c-7-57 23-157-34-157-59 0-34 97-39 157H25l-1-190h47c2 12-1 28 3 38 12-26 28-41 61-42" id="bq"/><path d="M195-6C206 82 75 100 31 46c-4-6-6-13-8-21l49-6c3 16 16 24 34 25 40 0 42-37 40-79-11 22-30 35-61 35-53 0-70-43-70-97 0-56 18-96 73-97 30 0 46 14 59 34l2-30h47zm-90-29c32 0 41-27 41-63 0-35-9-62-40-62-32 0-39 29-40 63 0 36 9 62 39 62" id="br"/><path d="M15-22v-40l146-57-146-57v-40l181 69v56" id="bs"/><g id="r"><use transform="matrix(0.05,0,0,0.05,0,0)" xlink:href="#bo"/><use transform="matrix(0.05,0,0,0.05,10.5,0)" xlink:href="#bo"/><use transform="matrix(0.05,0,0,0.05,21,0)" xlink:href="#am"/><use transform="matrix(0.05,0,0,0.05,31,0)" xlink:href="#ap"/><use transform="matrix(0.05,0,0,0.05,36.95,0)" xlink:href="#ar"/><use transform="matrix(0.05,0,0,0.05,43.95,0)" xlink:href="#bp"/><use transform="matrix(0.05,0,0,0.05,48.95,0)" xlink:href="#bq"/><use transform="matrix(0.05,0,0,0.05,59.900000000000006,0)" xlink:href="#br"/><use transform="matrix(0.05,0,0,0.05,70.85000000000001,0)" xlink:href="#bs"/><use transform="matrix(0.05,0,0,0.05,81.35000000000001,0)" xlink:href="#bs"/></g><path d="M117-194c89-4 53 116 60 194h-32v-121c0-31-8-49-39-48C34-167 62-67 57 0H25l-1-190h30c1 10-1 24 2 32 11-22 29-35 61-36" id="bt"/><path d="M141-36C126-15 110 5 73 4 37 3 15-17 15-53c-1-64 63-63 125-63 3-35-9-54-41-54-24 1-41 7-42 31l-33-3c5-37 33-52 76-52 45 0 72 20 72 64v82c-1 20 7 32 28 27v20c-31 9-61-2-59-35zM48-53c0 20 12 33 32 33 41-3 63-29 60-74-43 2-92-5-92 41" id="bu"/><path d="M210-169c-67 3-38 105-44 169h-31v-121c0-29-5-50-35-48C34-165 62-65 56 0H25l-1-190h30c1 10-1 24 2 32 10-44 99-50 107 0 11-21 27-35 58-36 85-2 47 119 55 194h-31v-121c0-29-5-49-35-48" id="bv"/><path d="M100-194c63 0 86 42 84 106H49c0 40 14 67 53 68 26 1 43-12 49-29l28 8c-11 28-37 45-77 45C44 4 14-33 15-96c1-61 26-98 85-98zm52 81c6-60-76-77-97-28-3 7-6 17-6 28h103" id="bw"/><g id="s"><use transform="matrix(0.05,0,0,0.05,0,0)" xlink:href="#bt"/><use transform="matrix(0.05,0,0,0.05,10,0)" xlink:href="#bu"/><use transform="matrix(0.05,0,0,0.05,20,0)" xlink:href="#bv"/><use transform="matrix(0.05,0,0,0.05,34.95,0)" xlink:href="#bw"/></g><path fill="#3a414a" d="M108 0H70L1-190h34L89-25l56-165h34" id="bx"/><g id="t"><use transform="matrix(0.06172839506172839,0,0,0.06172839506172839,0,0)" xlink:href="#bx"/><use transform="matrix(0.06172839506172839,0,0,0.06172839506172839,11.11111111111111,0)" xlink:href="#aO"/><use transform="matrix(0.06172839506172839,0,0,0.06172839506172839,23.45679012345679,0)" xlink:href="#aW"/><use transform="matrix(0.06172839506172839,0,0,0.06172839506172839,28.333333333333336,0)" xlink:href="#aV"/><use transform="matrix(0.06172839506172839,0,0,0.06172839506172839,40.67901234567901,0)" xlink:href="#aI"/><use transform="matrix(0.06172839506172839,0,0,0.06172839506172839,53.02469135802469,0)" xlink:href="#aG"/></g><g id="u"><use transform="matrix(0.06172839506172839,0,0,0.06172839506172839,0,0)" xlink:href="#bl"/><use transform="matrix(0.06172839506172839,0,0,0.06172839506172839,4.197530864197531,0)" xlink:href="#aP"/><use transform="matrix(0.06172839506172839,0,0,0.06172839506172839,22.65432098765432,0)" xlink:href="#bj"/><use transform="matrix(0.06172839506172839,0,0,0.06172839506172839,35,0)" xlink:href="#aT"/><use transform="matrix(0.06172839506172839,0,0,0.06172839506172839,47.34567901234568,0)" xlink:href="#aO"/><use transform="matrix(0.06172839506172839,0,0,0.06172839506172839,59.691358024691354,0)" xlink:href="#aW"/><use transform="matrix(0.06172839506172839,0,0,0.06172839506172839,64.5679012345679,0)" xlink:href="#aE"/><use transform="matrix(0.06172839506172839,0,0,0.06172839506172839,71.91358024691358,0)" xlink:href="#aQ"/><use transform="matrix(0.06172839506172839,0,0,0.06172839506172839,83.0246913580247,0)" xlink:href="#aR"/><use transform="matrix(0.06172839506172839,0,0,0.06172839506172839,89.19753086419753,0)" xlink:href="#bj"/><use transform="matrix(0.06172839506172839,0,0,0.06172839506172839,101.54320987654322,0)" xlink:href="#aK"/><use transform="matrix(0.06172839506172839,0,0,0.06172839506172839,108.8888888888889,0)" xlink:href="#aI"/><use transform="matrix(0.06172839506172839,0,0,0.06172839506172839,121.23456790123458,0)" xlink:href="#bl"/></g><path d="M240-174c0 40-23 61-54 70L253 0h-59l-57-94H76V0H24v-248c93 4 217-23 216 74zM76-134c48-2 112 12 112-38 0-48-66-32-112-35v73" id="by"/><path d="M85 4C-2 5 27-109 22-190h50c7 57-23 150 33 157 60-5 35-97 40-157h50l1 190h-47c-2-12 1-28-3-38-12 25-28 42-61 42" id="bz"/><g id="v"><use transform="matrix(0.05,0,0,0.05,0,0)" xlink:href="#al"/><use transform="matrix(0.05,0,0,0.05,12.950000000000001,0)" xlink:href="#am"/><use transform="matrix(0.05,0,0,0.05,22.950000000000003,0)" xlink:href="#an"/><use transform="matrix(0.05,0,0,0.05,32.95,0)" xlink:href="#ao"/><use transform="matrix(0.05,0,0,0.05,44.95,0)" xlink:href="#ap"/><use transform="matrix(0.05,0,0,0.05,50.900000000000006,0)" xlink:href="#aq"/><use transform="matrix(0.05,0,0,0.05,61.85,0)" xlink:href="#ar"/><use transform="matrix(0.05,0,0,0.05,68.85000000000001,0)" xlink:href="#an"/><use transform="matrix(0.05,0,0,0.05,78.85000000000001,0)" xlink:href="#by"/><use transform="matrix(0.05,0,0,0.05,91.80000000000001,0)" xlink:href="#an"/><use transform="matrix(0.05,0,0,0.05,101.80000000000001,0)" xlink:href="#ap"/><use transform="matrix(0.05,0,0,0.05,107.75,0)" xlink:href="#bz"/><use transform="matrix(0.05,0,0,0.05,118.7,0)" xlink:href="#ar"/><use transform="matrix(0.05,0,0,0.05,125.7,0)" xlink:href="#bq"/></g><path fill="#3a414a" d="M35-132v-50h50v50H35zM35 0v-49h50V0H35" id="bA"/><g id="w"><use transform="matrix(0.06172839506172839,0,0,0.06172839506172839,0,0)" xlink:href="#ay"/><use transform="matrix(0.06172839506172839,0,0,0.06172839506172839,6.172839506172839,0)" xlink:href="#az"/><use transform="matrix(0.06172839506172839,0,0,0.06172839506172839,19.691358024691358,0)" xlink:href="#aA"/><use transform="matrix(0.06172839506172839,0,0,0.06172839506172839,33.20987654320987,0)" xlink:href="#aB"/><use transform="matrix(0.06172839506172839,0,0,0.06172839506172839,46.72839506172839,0)" xlink:href="#aC"/><use transform="matrix(0.06172839506172839,0,0,0.06172839506172839,54.07407407407407,0)" xlink:href="#aD"/><use transform="matrix(0.06172839506172839,0,0,0.06172839506172839,66.41975308641975,0)" xlink:href="#bA"/><path fill="#3a414a" d="M-1.1 1.2h75.98V3.5h-76z"/></g><use transform="matrix(0.06172839506172839,0,0,0.06172839506172839,0,0)" xlink:href="#aE" id="x"/><g id="y"><use transform="matrix(0.06172839506172839,0,0,0.06172839506172839,0,0)" xlink:href="#aF"/><use transform="matrix(0.06172839506172839,0,0,0.06172839506172839,11.049382716049381,0)" xlink:href="#aG"/></g><g id="z"><use transform="matrix(0.06172839506172839,0,0,0.06172839506172839,0,0)" xlink:href="#aH"/><use transform="matrix(0.06172839506172839,0,0,0.06172839506172839,17.28395061728395,0)" xlink:href="#aI"/><use transform="matrix(0.06172839506172839,0,0,0.06172839506172839,29.629629629629626,0)" xlink:href="#aJ"/><use transform="matrix(0.06172839506172839,0,0,0.06172839506172839,41.9753086419753,0)" xlink:href="#aI"/><use transform="matrix(0.06172839506172839,0,0,0.06172839506172839,54.32098765432098,0)" xlink:href="#aK"/><use transform="matrix(0.06172839506172839,0,0,0.06172839506172839,61.66666666666666,0)" xlink:href="#aL"/><use transform="matrix(0.06172839506172839,0,0,0.06172839506172839,66.5432098765432,0)" xlink:href="#aM"/></g><g id="A"><use transform="matrix(0.06172839506172839,0,0,0.06172839506172839,0,0)" xlink:href="#aN"/><use transform="matrix(0.06172839506172839,0,0,0.06172839506172839,17.28395061728395,0)" xlink:href="#aB"/><use transform="matrix(0.06172839506172839,0,0,0.06172839506172839,30.80246913580247,0)" xlink:href="#aC"/><use transform="matrix(0.06172839506172839,0,0,0.06172839506172839,38.148148148148145,0)" xlink:href="#aA"/><use transform="matrix(0.06172839506172839,0,0,0.06172839506172839,51.666666666666664,0)" xlink:href="#aB"/><use transform="matrix(0.06172839506172839,0,0,0.06172839506172839,65.18518518518518,0)" xlink:href="#aC"/><use transform="matrix(0.06172839506172839,0,0,0.06172839506172839,72.53086419753086,0)" xlink:href="#aD"/><path fill="#3a414a" d="M-1.1 1.2H86V3.5H-1.1z"/></g><g id="B"><use transform="matrix(0.06172839506172839,0,0,0.06172839506172839,0,0)" xlink:href="#aQ"/><use transform="matrix(0.06172839506172839,0,0,0.06172839506172839,11.11111111111111,0)" xlink:href="#aR"/><use transform="matrix(0.06172839506172839,0,0,0.06172839506172839,17.28395061728395,0)" xlink:href="#aO"/><use transform="matrix(0.06172839506172839,0,0,0.06172839506172839,29.629629629629626,0)" xlink:href="#aR"/><use transform="matrix(0.06172839506172839,0,0,0.06172839506172839,35.80246913580247,0)" xlink:href="#aI"/><use transform="matrix(0.06172839506172839,0,0,0.06172839506172839,48.148148148148145,0)" xlink:href="#aG"/></g><g id="C"><use transform="matrix(0.06172839506172839,0,0,0.06172839506172839,0,0)" xlink:href="#aX"/><use transform="matrix(0.06172839506172839,0,0,0.06172839506172839,14.814814814814813,0)" xlink:href="#aL"/><use transform="matrix(0.06172839506172839,0,0,0.06172839506172839,19.691358024691354,0)" xlink:href="#aS"/><use transform="matrix(0.06172839506172839,0,0,0.06172839506172839,32.03703703703703,0)" xlink:href="#aJ"/><use transform="matrix(0.06172839506172839,0,0,0.06172839506172839,44.38271604938271,0)" xlink:href="#aO"/><use transform="matrix(0.06172839506172839,0,0,0.06172839506172839,56.728395061728385,0)" xlink:href="#aW"/><use transform="matrix(0.06172839506172839,0,0,0.06172839506172839,61.60493827160493,0)" xlink:href="#bk"/><use transform="matrix(0.06172839506172839,0,0,0.06172839506172839,74.5679012345679,0)" xlink:href="#aF"/><use transform="matrix(0.06172839506172839,0,0,0.06172839506172839,88.08641975308642,0)" xlink:href="#bb"/><use transform="matrix(0.06172839506172839,0,0,0.06172839506172839,101.04938271604938,0)" xlink:href="#bm"/></g><g id="D"><use transform="matrix(0.06172839506172839,0,0,0.06172839506172839,0,0)" xlink:href="#aQ"/><use transform="matrix(0.06172839506172839,0,0,0.06172839506172839,11.11111111111111,0)" xlink:href="#aI"/><use transform="matrix(0.06172839506172839,0,0,0.06172839506172839,23.45679012345679,0)" xlink:href="#aR"/><use transform="matrix(0.06172839506172839,0,0,0.06172839506172839,29.62962962962963,0)" xlink:href="#aX"/><use transform="matrix(0.06172839506172839,0,0,0.06172839506172839,44.44444444444444,0)" xlink:href="#aR"/><use transform="matrix(0.06172839506172839,0,0,0.06172839506172839,50.617283950617285,0)" xlink:href="#aO"/><use transform="matrix(0.06172839506172839,0,0,0.06172839506172839,62.96296296296296,0)" xlink:href="#aR"/><use transform="matrix(0.06172839506172839,0,0,0.06172839506172839,69.1358024691358,0)" xlink:href="#aI"/><use transform="matrix(0.06172839506172839,0,0,0.06172839506172839,81.48148148148148,0)" xlink:href="#aG"/></g><g id="E"><use transform="matrix(0.06172839506172839,0,0,0.06172839506172839,0,0)" xlink:href="#aY"/><use transform="matrix(0.06172839506172839,0,0,0.06172839506172839,7.345679012345679,0)" xlink:href="#aQ"/><use transform="matrix(0.06172839506172839,0,0,0.06172839506172839,18.45679012345679,0)" xlink:href="#aR"/><use transform="matrix(0.06172839506172839,0,0,0.06172839506172839,24.62962962962963,0)" xlink:href="#aO"/><use transform="matrix(0.06172839506172839,0,0,0.06172839506172839,36.97530864197531,0)" xlink:href="#aR"/><use transform="matrix(0.06172839506172839,0,0,0.06172839506172839,43.14814814814815,0)" xlink:href="#aI"/><use transform="matrix(0.06172839506172839,0,0,0.06172839506172839,55.49382716049383,0)" xlink:href="#aG"/></g><g id="F"><use transform="matrix(0.06172839506172839,0,0,0.06172839506172839,0,0)" xlink:href="#aF"/><use transform="matrix(0.06172839506172839,0,0,0.06172839506172839,13.518518518518517,0)" xlink:href="#aZ"/></g><g id="G"><use transform="matrix(0.06172839506172839,0,0,0.06172839506172839,0,0)" xlink:href="#bx"/><use transform="matrix(0.06172839506172839,0,0,0.06172839506172839,11.11111111111111,0)" xlink:href="#bj"/><use transform="matrix(0.06172839506172839,0,0,0.06172839506172839,23.45679012345679,0)" xlink:href="#aL"/><use transform="matrix(0.06172839506172839,0,0,0.06172839506172839,28.333333333333336,0)" xlink:href="#aT"/></g><path fill="#3a414a" d="M115-194c55 1 70 41 70 98S169 2 115 4C84 4 66-9 55-30l1 105H24l-1-265h31l2 30c10-21 28-34 59-34zm-8 174c40 0 45-34 45-75s-6-73-45-74c-42 0-51 32-51 76 0 43 10 73 51 73" id="bB"/><g id="H"><use transform="matrix(0.06172839506172839,0,0,0.06172839506172839,0,0)" xlink:href="#aV"/><use transform="matrix(0.06172839506172839,0,0,0.06172839506172839,12.345679012345679,0)" xlink:href="#bB"/><use transform="matrix(0.06172839506172839,0,0,0.06172839506172839,24.691358024691358,0)" xlink:href="#aT"/><use transform="matrix(0.06172839506172839,0,0,0.06172839506172839,37.03703703703704,0)" xlink:href="#aO"/><use transform="matrix(0.06172839506172839,0,0,0.06172839506172839,49.382716049382715,0)" xlink:href="#aR"/><use transform="matrix(0.06172839506172839,0,0,0.06172839506172839,55.55555555555556,0)" xlink:href="#aI"/><use transform="matrix(0.06172839506172839,0,0,0.06172839506172839,67.90123456790124,0)" xlink:href="#aX"/><use transform="matrix(0.06172839506172839,0,0,0.06172839506172839,82.71604938271605,0)" xlink:href="#aR"/><use transform="matrix(0.06172839506172839,0,0,0.06172839506172839,88.88888888888889,0)" xlink:href="#aO"/><use transform="matrix(0.06172839506172839,0,0,0.06172839506172839,101.23456790123457,0)" xlink:href="#aR"/><use transform="matrix(0.06172839506172839,0,0,0.06172839506172839,107.4074074074074,0)" xlink:href="#aI"/><use transform="matrix(0.06172839506172839,0,0,0.06172839506172839,119.75308641975309,0)" xlink:href="#aG"/></g><g id="I"><use transform="matrix(0.06172839506172839,0,0,0.06172839506172839,0,0)" xlink:href="#aY"/><use transform="matrix(0.06172839506172839,0,0,0.06172839506172839,7.345679012345679,0)" xlink:href="#bB"/><use transform="matrix(0.06172839506172839,0,0,0.06172839506172839,19.691358024691358,0)" xlink:href="#aO"/><use transform="matrix(0.06172839506172839,0,0,0.06172839506172839,32.03703703703704,0)" xlink:href="#aK"/><use transform="matrix(0.06172839506172839,0,0,0.06172839506172839,39.382716049382715,0)" xlink:href="#aR"/><use transform="matrix(0.06172839506172839,0,0,0.06172839506172839,45.55555555555556,0)" xlink:href="#aL"/><use transform="matrix(0.06172839506172839,0,0,0.06172839506172839,50.4320987654321,0)" xlink:href="#aO"/><use transform="matrix(0.06172839506172839,0,0,0.06172839506172839,62.77777777777778,0)" xlink:href="#aW"/><use transform="matrix(0.06172839506172839,0,0,0.06172839506172839,67.65432098765432,0)" xlink:href="#aG"/></g><path fill="#3a414a" d="M30-248c87 1 191-15 191 75 0 78-77 80-158 76V0H30v-248zm33 125c57 0 124 11 124-50 0-59-68-47-124-48v98" id="bC"/><g id="J"><use transform="matrix(0.06172839506172839,0,0,0.06172839506172839,0,0)" xlink:href="#bC"/><use transform="matrix(0.06172839506172839,0,0,0.06172839506172839,14.814814814814813,0)" xlink:href="#aO"/><use transform="matrix(0.06172839506172839,0,0,0.06172839506172839,27.160493827160494,0)" xlink:href="#aK"/><use transform="matrix(0.06172839506172839,0,0,0.06172839506172839,34.50617283950617,0)" xlink:href="#aR"/><use transform="matrix(0.06172839506172839,0,0,0.06172839506172839,40.67901234567901,0)" xlink:href="#aL"/><use transform="matrix(0.06172839506172839,0,0,0.06172839506172839,45.55555555555556,0)" xlink:href="#aO"/><use transform="matrix(0.06172839506172839,0,0,0.06172839506172839,57.901234567901234,0)" xlink:href="#aW"/><use transform="matrix(0.06172839506172839,0,0,0.06172839506172839,62.77777777777778,0)" xlink:href="#bk"/><use transform="matrix(0.06172839506172839,0,0,0.06172839506172839,75.74074074074073,0)" xlink:href="#aF"/><use transform="matrix(0.06172839506172839,0,0,0.06172839506172839,89.25925925925925,0)" xlink:href="#bb"/><use transform="matrix(0.06172839506172839,0,0,0.06172839506172839,102.22222222222221,0)" xlink:href="#aZ"/></g><g id="K"><use transform="matrix(0.06172839506172839,0,0,0.06172839506172839,0,0)" xlink:href="#aK"/><use transform="matrix(0.06172839506172839,0,0,0.06172839506172839,7.345679012345679,0)" xlink:href="#aI"/><use transform="matrix(0.06172839506172839,0,0,0.06172839506172839,19.691358024691358,0)" xlink:href="#aQ"/><use transform="matrix(0.06172839506172839,0,0,0.06172839506172839,30.80246913580247,0)" xlink:href="#aI"/><use transform="matrix(0.06172839506172839,0,0,0.06172839506172839,43.148148148148145,0)" xlink:href="#aR"/><use transform="matrix(0.06172839506172839,0,0,0.06172839506172839,49.32098765432099,0)" xlink:href="#aX"/><use transform="matrix(0.06172839506172839,0,0,0.06172839506172839,64.1358024691358,0)" xlink:href="#aR"/><use transform="matrix(0.06172839506172839,0,0,0.06172839506172839,70.30864197530863,0)" xlink:href="#aO"/><use transform="matrix(0.06172839506172839,0,0,0.06172839506172839,82.65432098765432,0)" xlink:href="#aR"/><use transform="matrix(0.06172839506172839,0,0,0.06172839506172839,88.82716049382715,0)" xlink:href="#aI"/><use transform="matrix(0.06172839506172839,0,0,0.06172839506172839,101.17283950617283,0)" xlink:href="#aG"/></g><g id="L"><use transform="matrix(0.06172839506172839,0,0,0.06172839506172839,0,0)" xlink:href="#bx"/><use transform="matrix(0.06172839506172839,0,0,0.06172839506172839,11.11111111111111,0)" xlink:href="#bj"/><use transform="matrix(0.06172839506172839,0,0,0.06172839506172839,23.45679012345679,0)" xlink:href="#aL"/><use transform="matrix(0.06172839506172839,0,0,0.06172839506172839,28.333333333333336,0)" xlink:href="#aT"/></g><path d="M121-226c-27-7-43 5-38 36h38v33H83V0H34v-157H6v-33h28c-9-59 32-81 87-68v32" id="bD"/><path d="M190-63c-7 42-38 67-86 67-59 0-84-38-90-98-12-110 154-137 174-36l-49 2c-2-19-15-32-35-32-30 0-35 28-38 64-6 74 65 87 74 30" id="bE"/><g id="M"><use transform="matrix(0.05,0,0,0.05,0,0)" xlink:href="#bo"/><use transform="matrix(0.05,0,0,0.05,10.5,0)" xlink:href="#bo"/><use transform="matrix(0.05,0,0,0.05,21,0)" xlink:href="#bD"/><use transform="matrix(0.05,0,0,0.05,26.950000000000003,0)" xlink:href="#bz"/><use transform="matrix(0.05,0,0,0.05,37.9,0)" xlink:href="#bq"/><use transform="matrix(0.05,0,0,0.05,48.85,0)" xlink:href="#bE"/><use transform="matrix(0.05,0,0,0.05,58.85,0)" xlink:href="#ap"/><use transform="matrix(0.05,0,0,0.05,64.8,0)" xlink:href="#bp"/><use transform="matrix(0.05,0,0,0.05,69.8,0)" xlink:href="#aq"/><use transform="matrix(0.05,0,0,0.05,80.75,0)" xlink:href="#bq"/><use transform="matrix(0.05,0,0,0.05,91.7,0)" xlink:href="#bs"/><use transform="matrix(0.05,0,0,0.05,102.2,0)" xlink:href="#bs"/></g><path d="M100-194c62-1 85 37 85 99 1 63-27 99-86 99S16-35 15-95c0-66 28-99 85-99zM99-20c44 1 53-31 53-75 0-43-8-75-51-75s-53 32-53 75 10 74 51 75" id="bF"/><path d="M85-194c31 0 48 13 60 33l-1-100h32l1 261h-30c-2-10 0-23-3-31C134-8 116 4 85 4 32 4 16-35 15-94c0-66 23-100 70-100zm9 24c-40 0-46 34-46 75 0 40 6 74 45 74 42 0 51-32 51-76 0-42-9-74-50-73" id="bG"/><path d="M24 0v-261h32V0H24" id="bH"/><path d="M185-189c-5-48-123-54-124 2 14 75 158 14 163 119 3 78-121 87-175 55-17-10-28-26-33-46l33-7c5 56 141 63 141-1 0-78-155-14-162-118-5-82 145-84 179-34 5 7 8 16 11 25" id="bI"/><path d="M59-47c-2 24 18 29 38 22v24C64 9 27 4 27-40v-127H5v-23h24l9-43h21v43h35v23H59v120" id="bJ"/><path d="M30-248c118-7 216 8 213 122C240-48 200 0 122 0H30v-248zM63-27c89 8 146-16 146-99s-60-101-146-95v194" id="bK"/><path d="M101-234c-31-9-42 10-38 44h38v23H63V0H32v-167H5v-23h27c-7-52 17-82 69-68v24" id="bL"/><path d="M84 4C-5 8 30-112 23-190h32v120c0 31 7 50 39 49 72-2 45-101 50-169h31l1 190h-30c-1-10 1-25-2-33-11 22-28 36-60 37" id="bM"/><path d="M135-143c-3-34-86-38-87 0 15 53 115 12 119 90S17 21 10-45l28-5c4 36 97 45 98 0-10-56-113-15-118-90-4-57 82-63 122-42 12 7 21 19 24 35" id="bN"/><g id="N"><use transform="matrix(0.05,0,0,0.05,0,0)" xlink:href="#bv"/><use transform="matrix(0.05,0,0,0.05,14.950000000000001,0)" xlink:href="#bF"/><use transform="matrix(0.05,0,0,0.05,24.950000000000003,0)" xlink:href="#bG"/><use transform="matrix(0.05,0,0,0.05,34.95,0)" xlink:href="#bu"/><use transform="matrix(0.05,0,0,0.05,44.95,0)" xlink:href="#bH"/><use transform="matrix(0.05,0,0,0.05,48.900000000000006,0)" xlink:href="#bI"/><use transform="matrix(0.05,0,0,0.05,60.900000000000006,0)" xlink:href="#bJ"/><use transform="matrix(0.05,0,0,0.05,65.9,0)" xlink:href="#bu"/><use transform="matrix(0.05,0,0,0.05,75.9,0)" xlink:href="#bJ"/><use transform="matrix(0.05,0,0,0.05,80.9,0)" xlink:href="#bw"/><use transform="matrix(0.05,0,0,0.05,90.9,0)" xlink:href="#bK"/><use transform="matrix(0.05,0,0,0.05,103.85000000000001,0)" xlink:href="#bw"/><use transform="matrix(0.05,0,0,0.05,113.85000000000001,0)" xlink:href="#bL"/><use transform="matrix(0.05,0,0,0.05,118.85000000000001,0)" xlink:href="#bu"/><use transform="matrix(0.05,0,0,0.05,128.85000000000002,0)" xlink:href="#bM"/><use transform="matrix(0.05,0,0,0.05,138.85000000000002,0)" xlink:href="#bH"/><use transform="matrix(0.05,0,0,0.05,142.8,0)" xlink:href="#bJ"/><use transform="matrix(0.05,0,0,0.05,147.8,0)" xlink:href="#bN"/></g><g id="O"><use transform="matrix(0.06172839506172839,0,0,0.06172839506172839,0,0)" xlink:href="#aK"/><use transform="matrix(0.06172839506172839,0,0,0.06172839506172839,7.345679012345679,0)" xlink:href="#aI"/><use transform="matrix(0.06172839506172839,0,0,0.06172839506172839,19.691358024691358,0)" xlink:href="#aR"/><use transform="matrix(0.06172839506172839,0,0,0.06172839506172839,25.864197530864196,0)" xlink:href="#aV"/><use transform="matrix(0.06172839506172839,0,0,0.06172839506172839,38.20987654320987,0)" xlink:href="#aK"/><use transform="matrix(0.06172839506172839,0,0,0.06172839506172839,45.55555555555555,0)" xlink:href="#aJ"/><use transform="matrix(0.06172839506172839,0,0,0.06172839506172839,57.90123456790123,0)" xlink:href="#aQ"/><use transform="matrix(0.06172839506172839,0,0,0.06172839506172839,69.01234567901234,0)" xlink:href="#aG"/></g><g id="P"><use transform="matrix(0.05,0,0,0.05,0,0)" xlink:href="#bN"/><use transform="matrix(0.05,0,0,0.05,9,0)" xlink:href="#bJ"/><use transform="matrix(0.05,0,0,0.05,14,0)" xlink:href="#bu"/><use transform="matrix(0.05,0,0,0.05,24,0)" xlink:href="#bJ"/><use transform="matrix(0.05,0,0,0.05,29,0)" xlink:href="#bw"/></g><g id="Q"><use transform="matrix(0.06172839506172839,0,0,0.06172839506172839,0,0)" xlink:href="#aX"/><use transform="matrix(0.06172839506172839,0,0,0.06172839506172839,14.814814814814813,0)" xlink:href="#aL"/><use transform="matrix(0.06172839506172839,0,0,0.06172839506172839,19.691358024691354,0)" xlink:href="#aS"/><use transform="matrix(0.06172839506172839,0,0,0.06172839506172839,32.03703703703703,0)" xlink:href="#aJ"/><use transform="matrix(0.06172839506172839,0,0,0.06172839506172839,44.38271604938271,0)" xlink:href="#aO"/><use transform="matrix(0.06172839506172839,0,0,0.06172839506172839,56.728395061728385,0)" xlink:href="#aW"/><use transform="matrix(0.06172839506172839,0,0,0.06172839506172839,61.60493827160493,0)" xlink:href="#bk"/><use transform="matrix(0.06172839506172839,0,0,0.06172839506172839,74.5679012345679,0)" xlink:href="#aF"/><use transform="matrix(0.06172839506172839,0,0,0.06172839506172839,88.08641975308642,0)" xlink:href="#bb"/></g><path d="M115-194c55 1 70 41 70 98S169 2 115 4C84 4 66-9 55-30l1 105H24l-1-265h31l2 30c10-21 28-34 59-34zm-8 174c40 0 45-34 45-75s-6-73-45-74c-42 0-51 32-51 76 0 43 10 73 51 73" id="bO"/><g id="R"><use transform="matrix(0.05,0,0,0.05,0,0)" xlink:href="#bM"/><use transform="matrix(0.05,0,0,0.05,10,0)" xlink:href="#bO"/><use transform="matrix(0.05,0,0,0.05,20,0)" xlink:href="#bG"/><use transform="matrix(0.05,0,0,0.05,30,0)" xlink:href="#bu"/><use transform="matrix(0.05,0,0,0.05,40,0)" xlink:href="#bJ"/><use transform="matrix(0.05,0,0,0.05,45,0)" xlink:href="#bw"/><use transform="matrix(0.05,0,0,0.05,55,0)" xlink:href="#bI"/><use transform="matrix(0.05,0,0,0.05,67,0)" xlink:href="#bJ"/><use transform="matrix(0.05,0,0,0.05,72,0)" xlink:href="#bu"/><use transform="matrix(0.05,0,0,0.05,82,0)" xlink:href="#bJ"/><use transform="matrix(0.05,0,0,0.05,87,0)" xlink:href="#bw"/></g><g id="S"><use transform="matrix(0.06172839506172839,0,0,0.06172839506172839,0,0)" xlink:href="#aO"/><use transform="matrix(0.06172839506172839,0,0,0.06172839506172839,12.345679012345679,0)" xlink:href="#aK"/><use transform="matrix(0.06172839506172839,0,0,0.06172839506172839,19.691358024691358,0)" xlink:href="#aS"/><use transform="matrix(0.06172839506172839,0,0,0.06172839506172839,32.03703703703704,0)" xlink:href="#aG"/></g><g id="T"><use transform="matrix(0.06172839506172839,0,0,0.06172839506172839,0,0)" xlink:href="#bC"/><use transform="matrix(0.06172839506172839,0,0,0.06172839506172839,14.814814814814813,0)" xlink:href="#aO"/><use transform="matrix(0.06172839506172839,0,0,0.06172839506172839,27.160493827160494,0)" xlink:href="#aK"/><use transform="matrix(0.06172839506172839,0,0,0.06172839506172839,34.50617283950617,0)" xlink:href="#aR"/><use transform="matrix(0.06172839506172839,0,0,0.06172839506172839,40.67901234567901,0)" xlink:href="#aL"/><use transform="matrix(0.06172839506172839,0,0,0.06172839506172839,45.55555555555556,0)" xlink:href="#aO"/><use transform="matrix(0.06172839506172839,0,0,0.06172839506172839,57.901234567901234,0)" xlink:href="#aW"/><use transform="matrix(0.06172839506172839,0,0,0.06172839506172839,62.77777777777778,0)" xlink:href="#bk"/><use transform="matrix(0.06172839506172839,0,0,0.06172839506172839,75.74074074074073,0)" xlink:href="#aF"/><use transform="matrix(0.06172839506172839,0,0,0.06172839506172839,89.25925925925925,0)" xlink:href="#bb"/></g><g id="U"><use transform="matrix(0.06172839506172839,0,0,0.06172839506172839,0,0)" xlink:href="#aK"/><use transform="matrix(0.06172839506172839,0,0,0.06172839506172839,7.345679012345679,0)" xlink:href="#aI"/><use transform="matrix(0.06172839506172839,0,0,0.06172839506172839,19.691358024691358,0)" xlink:href="#aR"/><use transform="matrix(0.06172839506172839,0,0,0.06172839506172839,25.864197530864196,0)" xlink:href="#aV"/><use transform="matrix(0.06172839506172839,0,0,0.06172839506172839,38.20987654320987,0)" xlink:href="#aK"/><use transform="matrix(0.06172839506172839,0,0,0.06172839506172839,45.55555555555555,0)" xlink:href="#aJ"/><use transform="matrix(0.06172839506172839,0,0,0.06172839506172839,57.90123456790123,0)" xlink:href="#aQ"/><use transform="matrix(0.06172839506172839,0,0,0.06172839506172839,69.01234567901234,0)" xlink:href="#aG"/></g><path d="M114-163C36-179 61-72 57 0H25l-1-190h30c1 12-1 29 2 39 6-27 23-49 58-41v29" id="bP"/><g id="V"><use transform="matrix(0.05,0,0,0.05,0,0)" xlink:href="#bP"/><use transform="matrix(0.05,0,0,0.05,5.95,0)" xlink:href="#bw"/><use transform="matrix(0.05,0,0,0.05,15.949999999999998,0)" xlink:href="#bN"/><use transform="matrix(0.05,0,0,0.05,24.95,0)" xlink:href="#bw"/><use transform="matrix(0.05,0,0,0.05,34.95,0)" xlink:href="#bJ"/><use transform="matrix(0.05,0,0,0.05,39.95,0)" xlink:href="#bI"/><use transform="matrix(0.05,0,0,0.05,51.95,0)" xlink:href="#bJ"/><use transform="matrix(0.05,0,0,0.05,56.95,0)" xlink:href="#bu"/><use transform="matrix(0.05,0,0,0.05,66.95,0)" xlink:href="#bJ"/><use transform="matrix(0.05,0,0,0.05,71.95,0)" xlink:href="#bw"/></g><g id="W"><use transform="matrix(0.05,0,0,0.05,0,0)" xlink:href="#bN"/><use transform="matrix(0.05,0,0,0.05,9,0)" xlink:href="#bw"/><use transform="matrix(0.05,0,0,0.05,19,0)" xlink:href="#bJ"/><use transform="matrix(0.05,0,0,0.05,24,0)" xlink:href="#bI"/><use transform="matrix(0.05,0,0,0.05,36,0)" xlink:href="#bJ"/><use transform="matrix(0.05,0,0,0.05,41,0)" xlink:href="#bu"/><use transform="matrix(0.05,0,0,0.05,51,0)" xlink:href="#bJ"/><use transform="matrix(0.05,0,0,0.05,56,0)" xlink:href="#bw"/></g><use transform="matrix(0.06172839506172839,0,0,0.06172839506172839,0,0)" xlink:href="#aF" id="X"/><path fill="#3a414a" d="M266 0h-40l-56-210L115 0H75L2-248h35L96-30l15-64 43-154h32l59 218 59-218h35" id="bQ"/><path fill="#3a414a" d="M206 0h-36l-40-164L89 0H53L-1-190h32L70-26l43-164h34l41 164 42-164h31" id="bR"/><g id="Y"><use transform="matrix(0.06172839506172839,0,0,0.06172839506172839,0,0)" xlink:href="#bQ"/><use transform="matrix(0.06172839506172839,0,0,0.06172839506172839,20.925925925925924,0)" xlink:href="#aL"/><use transform="matrix(0.06172839506172839,0,0,0.06172839506172839,25.80246913580247,0)" xlink:href="#aJ"/><use transform="matrix(0.06172839506172839,0,0,0.06172839506172839,38.148148148148145,0)" xlink:href="#aT"/><use transform="matrix(0.06172839506172839,0,0,0.06172839506172839,50.49382716049382,0)" xlink:href="#bj"/><use transform="matrix(0.06172839506172839,0,0,0.06172839506172839,62.8395061728395,0)" xlink:href="#bR"/></g><path fill="#3a414a" d="M212-179c-10-28-35-45-73-45-59 0-87 40-87 99 0 60 29 101 89 101 43 0 62-24 78-52l27 14C228-24 195 4 139 4 59 4 22-46 18-125c-6-104 99-153 187-111 19 9 31 26 39 46" id="bS"/><path fill="#3a414a" d="M30 0v-248h187v28H63v79h144v27H63v87h162V0H30" id="bT"/><g id="Z"><use transform="matrix(0.06172839506172839,0,0,0.06172839506172839,0,0)" xlink:href="#bS"/><use transform="matrix(0.06172839506172839,0,0,0.06172839506172839,15.987654320987653,0)" xlink:href="#aV"/><use transform="matrix(0.06172839506172839,0,0,0.06172839506172839,28.333333333333332,0)" xlink:href="#aQ"/><use transform="matrix(0.06172839506172839,0,0,0.06172839506172839,39.44444444444444,0)" xlink:href="#aR"/><use transform="matrix(0.06172839506172839,0,0,0.06172839506172839,45.617283950617285,0)" xlink:href="#bj"/><use transform="matrix(0.06172839506172839,0,0,0.06172839506172839,57.96296296296296,0)" xlink:href="#aP"/><use transform="matrix(0.06172839506172839,0,0,0.06172839506172839,76.41975308641975,0)" xlink:href="#bT"/><use transform="matrix(0.06172839506172839,0,0,0.06172839506172839,91.23456790123456,0)" xlink:href="#bx"/><use transform="matrix(0.06172839506172839,0,0,0.06172839506172839,102.34567901234567,0)" xlink:href="#aI"/><use transform="matrix(0.06172839506172839,0,0,0.06172839506172839,114.69135802469135,0)" xlink:href="#aJ"/><use transform="matrix(0.06172839506172839,0,0,0.06172839506172839,127.03703703703702,0)" xlink:href="#aR"/></g><path fill="#3a414a" d="M140-251c81 0 123 46 123 126C263-46 219 4 140 4 59 4 17-45 17-125s42-126 123-126zm0 227c63 0 89-41 89-101s-29-99-89-99c-61 0-89 39-89 99S79-25 140-24" id="bU"/><path fill="#3a414a" d="M115-194c53 0 69 39 70 98 0 66-23 100-70 100C84 3 66-7 56-30L54 0H23l1-261h32v101c10-23 28-34 59-34zm-8 174c40 0 45-34 45-75 0-40-5-75-45-74-42 0-51 32-51 76 0 43 10 73 51 73" id="bV"/><g id="aa"><use transform="matrix(0.06172839506172839,0,0,0.06172839506172839,0,0)" xlink:href="#bU"/><use transform="matrix(0.06172839506172839,0,0,0.06172839506172839,17.28395061728395,0)" xlink:href="#bV"/><use transform="matrix(0.06172839506172839,0,0,0.06172839506172839,29.629629629629626,0)" xlink:href="#aQ"/><use transform="matrix(0.06172839506172839,0,0,0.06172839506172839,40.74074074074073,0)" xlink:href="#aI"/><use transform="matrix(0.06172839506172839,0,0,0.06172839506172839,53.08641975308641,0)" xlink:href="#aK"/><use transform="matrix(0.06172839506172839,0,0,0.06172839506172839,60.43209876543209,0)" xlink:href="#bx"/><use transform="matrix(0.06172839506172839,0,0,0.06172839506172839,71.5432098765432,0)" xlink:href="#aO"/><use transform="matrix(0.06172839506172839,0,0,0.06172839506172839,83.88888888888889,0)" xlink:href="#bV"/><use transform="matrix(0.06172839506172839,0,0,0.06172839506172839,96.23456790123457,0)" xlink:href="#aW"/><use transform="matrix(0.06172839506172839,0,0,0.06172839506172839,101.11111111111111,0)" xlink:href="#aI"/></g><g id="ab"><use transform="matrix(0.06172839506172839,0,0,0.06172839506172839,0,0)" xlink:href="#bT"/><use transform="matrix(0.06172839506172839,0,0,0.06172839506172839,14.814814814814813,0)" xlink:href="#bx"/><use transform="matrix(0.06172839506172839,0,0,0.06172839506172839,25.925925925925924,0)" xlink:href="#aI"/><use transform="matrix(0.06172839506172839,0,0,0.06172839506172839,38.2716049382716,0)" xlink:href="#aJ"/><use transform="matrix(0.06172839506172839,0,0,0.06172839506172839,50.61728395061728,0)" xlink:href="#aR"/></g><use transform="matrix(0.06172839506172839,0,0,0.06172839506172839,0,0)" xlink:href="#aE" id="ac"/><g id="ad"><use transform="matrix(0.06172839506172839,0,0,0.06172839506172839,0,0)" xlink:href="#aP"/><use transform="matrix(0.06172839506172839,0,0,0.06172839506172839,18.456790123456788,0)" xlink:href="#bj"/><use transform="matrix(0.06172839506172839,0,0,0.06172839506172839,30.80246913580247,0)" xlink:href="#aT"/><use transform="matrix(0.06172839506172839,0,0,0.06172839506172839,43.148148148148145,0)" xlink:href="#aO"/><use transform="matrix(0.06172839506172839,0,0,0.06172839506172839,55.49382716049382,0)" xlink:href="#aW"/><use transform="matrix(0.06172839506172839,0,0,0.06172839506172839,60.37037037037037,0)" xlink:href="#aE"/><use transform="matrix(0.06172839506172839,0,0,0.06172839506172839,67.71604938271605,0)" xlink:href="#aQ"/><use transform="matrix(0.06172839506172839,0,0,0.06172839506172839,78.82716049382717,0)" xlink:href="#aR"/><use transform="matrix(0.06172839506172839,0,0,0.06172839506172839,85,0)" xlink:href="#bj"/><use transform="matrix(0.06172839506172839,0,0,0.06172839506172839,97.34567901234568,0)" xlink:href="#aK"/><use transform="matrix(0.06172839506172839,0,0,0.06172839506172839,104.69135802469137,0)" xlink:href="#aI"/></g><path fill="#3a414a" d="M26 75v-336h71v23H56V52h41v23H26" id="bW"/><path fill="#3a414a" d="M3 75V52h41v-290H3v-23h71V75H3" id="bX"/><g id="ae"><use transform="matrix(0.06172839506172839,0,0,0.06172839506172839,0,0)" xlink:href="#aX"/><use transform="matrix(0.06172839506172839,0,0,0.06172839506172839,14.814814814814813,0)" xlink:href="#aV"/><use transform="matrix(0.06172839506172839,0,0,0.06172839506172839,27.160493827160494,0)" xlink:href="#bV"/><use transform="matrix(0.06172839506172839,0,0,0.06172839506172839,39.50617283950617,0)" xlink:href="#aQ"/><use transform="matrix(0.06172839506172839,0,0,0.06172839506172839,50.61728395061728,0)" xlink:href="#aM"/><use transform="matrix(0.06172839506172839,0,0,0.06172839506172839,61.72839506172839,0)" xlink:href="#aK"/><use transform="matrix(0.06172839506172839,0,0,0.06172839506172839,69.07407407407408,0)" xlink:href="#aL"/><use transform="matrix(0.06172839506172839,0,0,0.06172839506172839,73.95061728395062,0)" xlink:href="#bV"/><use transform="matrix(0.06172839506172839,0,0,0.06172839506172839,86.2962962962963,0)" xlink:href="#aI"/><use transform="matrix(0.06172839506172839,0,0,0.06172839506172839,98.64197530864199,0)" xlink:href="#aK"/><use transform="matrix(0.06172839506172839,0,0,0.06172839506172839,105.98765432098767,0)" xlink:href="#aQ"/><use transform="matrix(0.06172839506172839,0,0,0.06172839506172839,117.09876543209879,0)" xlink:href="#bW"/><use transform="matrix(0.06172839506172839,0,0,0.06172839506172839,123.27160493827162,0)" xlink:href="#bX"/></g><path fill="#3a414a" d="M106-169C34-169 62-67 57 0H25v-261h32l-1 103c12-21 28-36 61-36 89 0 53 116 60 194h-32v-121c2-32-8-49-39-48" id="bY"/><g id="af"><use transform="matrix(0.06172839506172839,0,0,0.06172839506172839,0,0)" xlink:href="#bY"/><use transform="matrix(0.06172839506172839,0,0,0.06172839506172839,12.345679012345679,0)" xlink:href="#aO"/><use transform="matrix(0.06172839506172839,0,0,0.06172839506172839,24.691358024691358,0)" xlink:href="#aJ"/><use transform="matrix(0.06172839506172839,0,0,0.06172839506172839,37.03703703703704,0)" xlink:href="#aT"/><use transform="matrix(0.06172839506172839,0,0,0.06172839506172839,49.382716049382715,0)" xlink:href="#aW"/><use transform="matrix(0.06172839506172839,0,0,0.06172839506172839,54.25925925925926,0)" xlink:href="#aI"/><use transform="matrix(0.06172839506172839,0,0,0.06172839506172839,66.60493827160494,0)" xlink:href="#aX"/><use transform="matrix(0.06172839506172839,0,0,0.06172839506172839,81.41975308641975,0)" xlink:href="#aR"/><use transform="matrix(0.06172839506172839,0,0,0.06172839506172839,87.59259259259258,0)" xlink:href="#aO"/><use transform="matrix(0.06172839506172839,0,0,0.06172839506172839,99.93827160493827,0)" xlink:href="#aR"/><use transform="matrix(0.06172839506172839,0,0,0.06172839506172839,106.1111111111111,0)" xlink:href="#aI"/><use transform="matrix(0.06172839506172839,0,0,0.06172839506172839,118.45679012345678,0)" xlink:href="#bS"/><use transform="matrix(0.06172839506172839,0,0,0.06172839506172839,134.44444444444443,0)" xlink:href="#bY"/><use transform="matrix(0.06172839506172839,0,0,0.06172839506172839,146.7901234567901,0)" xlink:href="#aO"/><use transform="matrix(0.06172839506172839,0,0,0.06172839506172839,159.13580246913577,0)" xlink:href="#aJ"/><use transform="matrix(0.06172839506172839,0,0,0.06172839506172839,171.48148148148144,0)" xlink:href="#aS"/><use transform="matrix(0.06172839506172839,0,0,0.06172839506172839,183.8271604938271,0)" xlink:href="#aI"/></g><path fill="#333" d="M169-182c-1-43-94-46-97-3 18 66 151 10 154 114 3 95-165 93-204 36-6-8-10-19-12-30l50-8c3 46 112 56 116 5-17-69-150-10-154-114-4-87 153-88 188-35 5 8 8 18 10 28" id="bZ"/><path fill="#333" d="M85 4C-2 5 27-109 22-190h50c7 57-23 150 33 157 60-5 35-97 40-157h50l1 190h-47c-2-12 1-28-3-38-12 25-28 42-61 42" id="ca"/><path fill="#333" d="M135-194c52 0 70 43 70 98 0 56-19 99-73 100-30 1-46-15-58-35L72 0H24l1-261h50v104c11-23 29-37 60-37zM114-30c31 0 40-27 40-66 0-37-7-63-39-63s-41 28-41 65c0 36 8 64 40 64" id="cb"/><path fill="#333" d="M137-138c1-29-70-34-71-4 15 46 118 7 119 86 1 83-164 76-172 9l43-7c4 19 20 25 44 25 33 8 57-30 24-41C81-84 22-81 20-136c-2-80 154-74 161-7" id="cc"/><path fill="#333" d="M190-63c-7 42-38 67-86 67-59 0-84-38-90-98-12-110 154-137 174-36l-49 2c-2-19-15-32-35-32-30 0-35 28-38 64-6 74 65 87 74 30" id="cd"/><path fill="#333" d="M135-150c-39-12-60 13-60 57V0H25l-1-190h47c2 13-1 29 3 40 6-28 27-53 61-41v41" id="ce"/><path fill="#333" d="M25-224v-37h50v37H25zM25 0v-190h50V0H25" id="cf"/><path fill="#333" d="M185-48c-13 30-37 53-82 52C43 2 14-33 14-96s30-98 90-98c62 0 83 45 84 108H66c0 31 8 55 39 56 18 0 30-7 34-22zm-45-69c5-46-57-63-70-21-2 6-4 13-4 21h74" id="cg"/><g id="ag"><use transform="matrix(0.04938271604938272,0,0,0.04938271604938272,0,0)" xlink:href="#bZ"/><use transform="matrix(0.04938271604938272,0,0,0.04938271604938272,11.851851851851853,0)" xlink:href="#ca"/><use transform="matrix(0.04938271604938272,0,0,0.04938271604938272,22.666666666666668,0)" xlink:href="#cb"/><use transform="matrix(0.04938271604938272,0,0,0.04938271604938272,33.48148148148148,0)" xlink:href="#cc"/><use transform="matrix(0.04938271604938272,0,0,0.04938271604938272,43.358024691358025,0)" xlink:href="#cd"/><use transform="matrix(0.04938271604938272,0,0,0.04938271604938272,53.23456790123457,0)" xlink:href="#ce"/><use transform="matrix(0.04938271604938272,0,0,0.04938271604938272,60.14814814814815,0)" xlink:href="#cf"/><use transform="matrix(0.04938271604938272,0,0,0.04938271604938272,65.08641975308643,0)" xlink:href="#cb"/><use transform="matrix(0.04938271604938272,0,0,0.04938271604938272,75.90123456790124,0)" xlink:href="#cg"/></g><path fill="#333" d="M24-248c93 1 206-16 204 79-1 75-69 88-152 82V0H24v-248zm52 121c47 0 100 7 100-41 0-47-54-39-100-39v80" id="ch"/><path fill="#333" d="M25 0v-261h50V0H25" id="ci"/><path fill="#333" d="M114-157C55-157 80-60 75 0H25v-261h50l-1 109c12-26 28-41 61-42 86-1 58 113 63 194h-50c-7-57 23-157-34-157" id="cj"/><g id="ah"><use transform="matrix(0.04938271604938272,0,0,0.04938271604938272,0,0)" xlink:href="#ch"/><use transform="matrix(0.04938271604938272,0,0,0.04938271604938272,11.851851851851853,0)" xlink:href="#ca"/><use transform="matrix(0.04938271604938272,0,0,0.04938271604938272,22.666666666666668,0)" xlink:href="#cb"/><use transform="matrix(0.04938271604938272,0,0,0.04938271604938272,33.48148148148148,0)" xlink:href="#ci"/><use transform="matrix(0.04938271604938272,0,0,0.04938271604938272,38.41975308641975,0)" xlink:href="#cf"/><use transform="matrix(0.04938271604938272,0,0,0.04938271604938272,43.358024691358025,0)" xlink:href="#cc"/><use transform="matrix(0.04938271604938272,0,0,0.04938271604938272,53.23456790123457,0)" xlink:href="#cj"/></g><path fill="#333" d="M175 0L67-191c6 58 2 128 3 191H24v-248h59L193-55c-6-58-2-129-3-193h46V0h-61" id="ck"/><path fill="#333" d="M110-194c64 0 96 36 96 99 0 64-35 99-97 99-61 0-95-36-95-99 0-62 34-99 96-99zm-1 164c35 0 45-28 45-65 0-40-10-65-43-65-34 0-45 26-45 65 0 36 10 65 43 65" id="cl"/><path fill="#333" d="M115-3C79 11 28 4 28-45v-112H4v-33h27l15-45h31v45h36v33H77v99c-1 23 16 31 38 25v30" id="cm"/><path fill="#333" d="M121-226c-27-7-43 5-38 36h38v33H83V0H34v-157H6v-33h28c-9-59 32-81 87-68v32" id="cn"/><path fill="#333" d="M123 10C108 53 80 86 19 72V37c35 8 53-11 59-39L3-190h52l48 148c12-52 28-100 44-148h51" id="co"/><g id="ai"><use transform="matrix(0.04938271604938272,0,0,0.04938271604938272,0,0)" xlink:href="#ck"/><use transform="matrix(0.04938271604938272,0,0,0.04938271604938272,12.790123456790125,0)" xlink:href="#cl"/><use transform="matrix(0.04938271604938272,0,0,0.04938271604938272,23.60493827160494,0)" xlink:href="#cm"/><use transform="matrix(0.04938271604938272,0,0,0.04938271604938272,29.481481481481485,0)" xlink:href="#cf"/><use transform="matrix(0.04938271604938272,0,0,0.04938271604938272,34.41975308641976,0)" xlink:href="#cn"/><use transform="matrix(0.04938271604938272,0,0,0.04938271604938272,40.296296296296305,0)" xlink:href="#co"/></g><g id="aj"><use transform="matrix(0.05,0,0,0.05,0,0)" xlink:href="#bz"/><use transform="matrix(0.05,0,0,0.05,10.950000000000001,0)" xlink:href="#am"/><use transform="matrix(0.05,0,0,0.05,20.950000000000003,0)" xlink:href="#an"/><use transform="matrix(0.05,0,0,0.05,30.950000000000003,0)" xlink:href="#ao"/><use transform="matrix(0.05,0,0,0.05,42.95,0)" xlink:href="#ap"/><use transform="matrix(0.05,0,0,0.05,48.900000000000006,0)" xlink:href="#aq"/><use transform="matrix(0.05,0,0,0.05,59.85,0)" xlink:href="#ar"/><use transform="matrix(0.05,0,0,0.05,66.85000000000001,0)" xlink:href="#an"/></g><path d="M76-208v77h127v40H76V0H24v-248h183v40H76" id="cp"/><g id="ak"><use transform="matrix(0.05,0,0,0.05,0,0)" xlink:href="#au"/><use transform="matrix(0.05,0,0,0.05,5.95,0)" xlink:href="#cp"/><use transform="matrix(0.05,0,0,0.05,16.900000000000002,0)" xlink:href="#bz"/><use transform="matrix(0.05,0,0,0.05,27.85,0)" xlink:href="#bq"/><use transform="matrix(0.05,0,0,0.05,38.800000000000004,0)" xlink:href="#bE"/><use transform="matrix(0.05,0,0,0.05,48.800000000000004,0)" xlink:href="#ap"/><use transform="matrix(0.05,0,0,0.05,54.75,0)" xlink:href="#bp"/><use transform="matrix(0.05,0,0,0.05,59.75,0)" xlink:href="#aq"/><use transform="matrix(0.05,0,0,0.05,70.7,0)" xlink:href="#bq"/><use transform="matrix(0.05,0,0,0.05,81.65,0)" xlink:href="#ax"/></g></defs></g></svg>